<?xml version="1.0" standalone="no"?>
<!DOCTYPE svg PUBLIC "-//W3C//DTD SVG 20010904//EN"
 "http://www.w3.org/TR/2001/REC-SVG-20010904/DTD/svg10.dtd">
<svg version="1.0" xmlns="http://www.w3.org/2000/svg"
 width="1024.000000pt" height="1024.000000pt" viewBox="0 0 1024.000000 1024.000000"
 preserveAspectRatio="xMidYMid meet">

<g transform="translate(0.000000,1024.000000) scale(0.100000,-0.100000)"
fill="#000000" stroke="none">
<path d="M3037 7595 c-257 -32 -495 -104 -731 -218 -469 -229 -808 -565 -1031
-1021 -107 -218 -171 -427 -212 -686 -28 -182 -26 -661 5 -870 49 -333 170
-804 247 -966 42 -87 107 -161 172 -196 56 -30 78 -35 1063 -232 399 -80 1117
-224 1597 -321 480 -96 889 -175 910 -175 45 1 138 37 196 77 127 88 257 359
347 726 59 241 94 490 116 829 l6 97 86 27 c233 71 442 100 646 91 282 -13
459 -65 846 -247 241 -114 340 -153 480 -189 278 -71 565 -66 824 16 144 45
221 94 256 162 18 37 83 247 204 661 36 124 108 374 161 555 277 948 395 1361
395 1382 0 37 -18 63 -55 78 -44 19 -70 10 -195 -64 -166 -97 -323 -140 -521
-141 -237 0 -383 43 -824 248 -243 113 -425 163 -658 184 -294 25 -669 -35
-955 -154 -40 -17 -75 -28 -78 -25 -3 2 4 38 16 78 24 87 25 130 5 168 -15 30
-76 61 -121 61 -39 0 -91 -26 -110 -55 -9 -14 -48 -132 -86 -263 -38 -130 -97
-336 -133 -457 -167 -577 -304 -1042 -314 -1065 -5 -15 -10 -18 -10 -9 -1 9
-19 81 -41 160 -117 427 -318 784 -604 1074 -357 361 -806 592 -1301 670 -141
22 -463 28 -598 10z m520 -200 c601 -79 1134 -406 1481 -909 34 -49 62 -93 62
-97 0 -16 -346 -114 -560 -158 -355 -73 -622 -96 -1050 -90 -580 7 -668 5
-738 -14 -91 -25 -168 -65 -228 -120 -145 -132 -152 -328 -19 -528 86 -128
343 -379 548 -533 51 -38 94 -71 97 -75 3 -3 37 -23 75 -44 164 -89 297 -148
406 -181 383 -115 1072 -196 1670 -196 l219 0 0 -24 c0 -63 -45 -368 -76 -516
-117 -557 -243 -800 -416 -800 -18 0 -357 66 -753 146 -396 80 -1138 228
-1650 330 -511 101 -951 189 -978 195 -66 15 -107 46 -145 109 -39 65 -51 105
-137 445 -138 543 -168 864 -119 1255 111 882 726 1563 1599 1771 209 49 490
63 712 34z m3913 -180 c47 -9 126 -27 175 -41 102 -29 295 -102 295 -112 0 -7
-218 -734 -227 -758 -5 -15 80 -60 254 -135 134 -57 268 -101 383 -125 47 -10
86 -18 87 -19 7 -3 -237 -790 -247 -793 -39 -13 -293 63 -458 137 -234 106
-264 122 -258 137 9 24 236 772 236 778 0 10 -103 53 -226 96 -138 48 -277 77
-439 92 -108 10 -128 10 -136 -3 -11 -16 -26 -65 -151 -491 l-93 -318 -57 0
c-79 0 -323 -43 -448 -79 -84 -25 -277 -95 -372 -135 -15 -7 -15 -4 -2 41 8
26 49 165 90 308 41 143 88 303 105 356 l29 96 73 33 c183 82 459 156 692 186
72 9 133 19 136 23 3 3 54 168 113 366 59 198 109 366 112 374 4 12 27 13 127
8 67 -4 160 -13 207 -22z m1799 -690 c-81 -282 -114 -384 -129 -397 -30 -25
-163 -74 -255 -94 -98 -22 -407 -26 -427 -6 -9 9 5 67 62 259 41 137 90 304
111 373 31 105 40 125 55 123 11 -2 82 -3 159 -4 107 -1 164 4 241 20 99 20
222 64 267 94 12 8 23 14 23 13 1 0 -47 -172 -107 -381z m-2246 -890 c134 -24
371 -98 425 -134 11 -6 7 -31 -21 -122 -20 -63 -70 -229 -112 -369 -43 -140
-79 -258 -81 -261 -2 -4 -52 13 -111 38 -198 82 -340 116 -630 149 l-41 5 18
57 c10 31 55 183 100 337 45 154 86 291 91 304 l10 24 132 -6 c73 -3 171 -13
220 -22z m1832 -531 c-118 -404 -155 -527 -166 -540 -33 -40 -258 -99 -433
-113 -146 -12 -276 -4 -276 16 0 8 50 181 112 385 l112 369 95 -6 c172 -12
367 20 534 88 45 18 83 32 85 31 2 -1 -27 -104 -63 -230z"/>
<path d="M3190 7393 c0 -5 33 -7 72 -5 132 5 145 9 36 10 -60 1 -108 -1 -108
-5z"/>
<path d="M3035 7380 c-23 -5 -3 -6 50 -3 50 3 92 7 94 9 7 7 -102 2 -144 -6z"/>
<path d="M3438 7383 c18 -2 45 -2 60 0 15 2 0 4 -33 4 -33 0 -45 -2 -27 -4z"/>
<path d="M3543 7373 c9 -2 25 -2 35 0 9 3 1 5 -18 5 -19 0 -27 -2 -17 -5z"/>
<path d="M2925 7363 c-94 -19 -203 -47 -215 -55 -13 -8 -13 -9 0 -5 8 2 60 14
115 26 162 36 173 39 145 39 -14 0 -34 -2 -45 -5z"/>
<path d="M3709 7345 c63 -13 116 -23 119 -21 5 6 -130 36 -186 42 -26 2 4 -7
67 -21z"/>
<path d="M3975 7270 c77 -27 199 -78 270 -114 72 -36 121 -59 111 -51 -60 46
-272 141 -425 191 -132 43 -100 24 44 -26z"/>
<path d="M2611 7277 c-30 -11 -50 -22 -45 -24 6 -2 37 8 69 21 73 31 52 33
-24 3z"/>
<path d="M2495 7231 c-22 -11 -35 -19 -30 -19 14 -1 93 36 80 37 -5 0 -28 -8
-50 -18z"/>
<path d="M2376 7179 c-32 -17 -56 -32 -54 -35 3 -2 33 12 69 31 79 42 67 46
-15 4z"/>
<path d="M2215 7087 c-89 -54 -162 -105 -170 -117 -3 -5 29 15 72 44 43 29 97
63 120 75 23 11 44 25 48 31 9 15 6 13 -70 -33z"/>
<path d="M4380 7081 c0 -6 5 -11 10 -11 38 0 346 -242 333 -263 -4 -6 -1 -7 6
-2 9 5 5 15 -16 37 -36 39 -170 144 -248 195 -83 54 -85 56 -85 44z"/>
<path d="M2340 7076 c0 -2 8 -10 18 -17 15 -13 16 -12 3 4 -13 16 -21 21 -21
13z"/>
<path d="M2009 6943 c-13 -16 -12 -17 4 -4 9 7 17 15 17 17 0 8 -8 3 -21 -13z"/>
<path d="M1856 6808 c-109 -109 -258 -291 -287 -351 -10 -22 -10 -22 6 -2 8
11 50 67 92 125 43 58 133 160 201 228 67 67 120 122 117 122 -3 0 -61 -55
-129 -122z"/>
<path d="M3040 6866 c0 -2 7 -7 16 -10 8 -3 12 -2 9 4 -6 10 -25 14 -25 6z"/>
<path d="M4814 6730 c37 -41 73 -82 80 -90 6 -8 30 -37 52 -65 23 -27 59 -78
82 -112 38 -56 40 -63 25 -72 -10 -6 -13 -10 -8 -11 6 0 16 4 24 9 10 7 4 22
-30 72 -65 97 -181 238 -240 294 -48 44 -46 42 15 -25z"/>
<path d="M1527 6388 c-39 -68 -109 -210 -105 -214 3 -2 22 32 43 76 21 43 43
76 48 73 6 -3 7 -1 3 5 -4 7 5 32 19 57 15 25 25 45 22 45 -3 0 -16 -19 -30
-42z"/>
<path d="M5008 6373 c7 -3 16 -2 19 1 4 3 -2 6 -13 5 -11 0 -14 -3 -6 -6z"/>
<path d="M4902 6348 c-40 -12 -70 -23 -68 -25 5 -5 145 33 154 42 8 8 -7 5
-86 -17z"/>
<path d="M4775 6310 c-13 -5 -14 -9 -5 -9 8 0 24 4 35 9 13 5 14 9 5 9 -8 0
-24 -4 -35 -9z"/>
<path d="M4606 6272 c-66 -14 -114 -28 -108 -30 12 -4 242 45 250 53 8 8 -14
4 -142 -23z"/>
<path d="M4458 6245 c-3 -3 -67 -16 -144 -30 -78 -14 -111 -22 -74 -19 96 9
247 39 234 47 -6 3 -13 4 -16 2z"/>
<path d="M2340 6181 c0 -6 4 -13 10 -16 6 -3 7 1 4 9 -7 18 -14 21 -14 7z"/>
<path d="M3930 6174 l-135 -13 125 5 c69 3 154 9 190 13 l65 8 -55 0 c-30 0
-116 -6 -190 -13z"/>
<path d="M2938 6173 c23 -2 61 -2 85 0 23 2 4 4 -43 4 -47 0 -66 -2 -42 -4z"/>
<path d="M2760 6154 l-35 -14 35 6 c36 6 46 11 39 18 -2 2 -20 -3 -39 -10z"/>
<path d="M2838 6163 c12 -2 30 -2 40 0 9 3 -1 5 -23 4 -22 0 -30 -2 -17 -4z"/>
<path d="M3123 6163 c31 -2 83 -2 115 0 31 2 5 3 -58 3 -63 0 -89 -1 -57 -3z"/>
<path d="M3324 6159 c-16 -4 82 -7 219 -8 136 0 247 2 247 7 0 9 -424 10 -466
1z"/>
<path d="M1381 6080 c-17 -45 -33 -94 -36 -109 -3 -14 12 21 34 79 22 57 39
106 37 108 -2 2 -18 -34 -35 -78z"/>
<path d="M2660 6120 c-8 -5 -10 -10 -5 -10 6 0 17 5 25 10 8 5 11 10 5 10 -5
0 -17 -5 -25 -10z"/>
<path d="M2603 6098 c-13 -6 -23 -15 -23 -20 0 -7 31 8 59 29 10 7 -16 1 -36
-9z"/>
<path d="M1870 6091 c0 -6 4 -13 10 -16 6 -3 7 1 4 9 -7 18 -14 21 -14 7z"/>
<path d="M2525 6040 c-35 -28 -85 -87 -85 -99 0 -3 12 8 25 26 14 17 44 48 68
67 51 43 45 48 -8 6z"/>
<path d="M1327 5916 c-5 -15 -6 -31 -2 -34 3 -3 5 2 5 11 0 10 5 14 15 11 8
-4 15 -1 15 6 0 6 -4 9 -9 5 -5 -3 -11 3 -13 12 -3 13 -6 10 -11 -11z"/>
<path d="M1800 5926 c0 -2 7 -7 16 -10 8 -3 12 -2 9 4 -6 10 -25 14 -25 6z"/>
<path d="M2424 5915 c-4 -8 -10 -12 -15 -9 -5 3 -6 -2 -3 -11 7 -18 7 -18 23
13 6 12 9 22 6 22 -3 0 -8 -7 -11 -15z"/>
<path d="M1297 5794 c-9 -43 -19 -99 -22 -124 -2 -25 7 7 20 70 14 63 24 119
22 124 -2 6 -11 -26 -20 -70z"/>
<path d="M2395 5860 c-3 -5 -8 -43 -10 -82 l-4 -73 9 63 c5 34 12 72 15 82 7
21 0 27 -10 10z"/>
<path d="M1965 5831 c-3 -5 -2 -12 3 -15 5 -3 9 1 9 9 0 17 -3 19 -12 6z"/>
<path d="M2335 5830 c-3 -6 1 -7 9 -4 18 7 21 14 7 14 -6 0 -13 -4 -16 -10z"/>
<path d="M2250 5736 c0 -2 7 -7 16 -10 8 -3 12 -2 9 4 -6 10 -25 14 -25 6z"/>
<path d="M2391 5655 c0 -34 3 -45 9 -35 4 9 5 31 0 50 -8 34 -8 33 -9 -15z"/>
<path d="M1810 5681 c0 -6 4 -13 10 -16 6 -3 7 1 4 9 -7 18 -14 21 -14 7z"/>
<path d="M1263 5585 c0 -22 2 -30 4 -17 2 12 2 30 0 40 -3 9 -5 -1 -4 -23z"/>
<path d="M1830 5610 c0 -5 5 -10 11 -10 5 0 7 5 4 10 -3 6 -8 10 -11 10 -2 0
-4 -4 -4 -10z"/>
<path d="M2410 5615 c0 -5 5 -17 10 -25 5 -8 10 -10 10 -5 0 6 -5 17 -10 25
-5 8 -10 11 -10 5z"/>
<path d="M2040 5576 c0 -2 7 -7 16 -10 8 -3 12 -2 9 4 -6 10 -25 14 -25 6z"/>
<path d="M1805 5559 c-4 -6 -5 -12 -2 -15 2 -3 7 2 10 11 7 17 1 20 -8 4z"/>
<path d="M2105 5550 c-3 -5 -1 -10 4 -10 6 0 11 5 11 10 0 6 -2 10 -4 10 -3 0
-8 -4 -11 -10z"/>
<path d="M2436 5534 c-4 -10 -4 -15 0 -11 11 10 56 -61 48 -76 -4 -6 -4 -9 1
-5 4 4 15 2 24 -5 8 -6 1 8 -15 33 -17 25 -35 53 -41 64 -10 18 -10 18 -17 0z"/>
<path d="M1246 5443 c-4 -54 -8 -116 -10 -138 l-3 -40 346 -73 c190 -40 409
-86 486 -103 402 -86 1060 -219 1070 -215 5 2 -5 7 -22 11 -18 4 -31 10 -29
14 3 4 -12 18 -32 31 -20 14 -66 49 -102 78 -65 54 -65 54 -12 5 29 -27 50
-52 46 -56 -10 -9 -26 -9 -21 1 3 4 -14 6 -36 5 -23 0 -49 3 -57 8 -10 5 -11
8 -2 9 6 0 12 7 12 16 0 10 -6 14 -14 11 -10 -4 -13 -1 -9 8 3 8 9 12 14 9 5
-3 9 0 9 6 0 16 -34 8 -42 -10 -5 -12 -7 -12 -7 3 -1 13 -10 17 -37 17 -29 0
-35 3 -30 16 4 10 2 13 -6 8 -7 -5 -9 -2 -5 9 4 11 2 14 -8 10 -11 -4 -12 -10
-5 -23 9 -16 7 -18 -16 -14 -19 3 -24 1 -18 -8 6 -10 3 -9 -9 1 -13 10 -20 11
-31 2 -19 -16 -37 15 -25 44 7 18 8 18 9 -5 l2 -25 8 25 c8 24 8 24 9 3 1 -13
6 -23 12 -23 5 0 7 5 4 10 -3 6 -1 10 4 10 6 0 11 -6 11 -12 0 -7 11 -1 24 14
13 15 27 24 30 20 4 -3 4 2 0 12 -7 18 -8 18 -21 0 -12 -16 -13 -16 -13 -1 0
20 -26 23 -33 5 -2 -7 -3 -6 -2 3 3 18 -28 49 -47 49 -7 0 -2 -7 10 -16 12 -8
22 -20 22 -26 0 -6 -6 -6 -15 2 -9 7 -18 10 -22 6 -3 -3 -1 -6 5 -6 7 0 12 -4
12 -8 0 -5 -13 -7 -30 -4 -16 2 -30 9 -30 14 0 5 -5 6 -11 2 -18 -11 -100 -14
-94 -3 4 5 2 9 -4 9 -5 0 -11 -6 -14 -12 -3 -10 -9 -10 -27 0 -20 12 -22 12
-17 -1 7 -17 -26 -12 -42 7 -13 15 -22 66 -11 63 4 -1 8 1 9 6 3 21 0 27 -15
27 -9 0 -12 -5 -8 -12 5 -7 3 -8 -5 -3 -21 12 4 27 34 19 20 -5 23 -9 13 -15
-12 -8 -5 -11 19 -8 3 0 10 -6 15 -15 12 -22 36 -9 34 19 0 13 -4 21 -8 18 -5
-2 -8 1 -8 6 0 6 7 11 15 11 19 0 16 47 -4 63 -12 10 -14 8 -9 -10 4 -14 1
-24 -8 -27 -8 -3 -14 0 -14 7 0 8 -4 7 -10 -3 -7 -11 -11 -9 -19 13 -6 15 -13
27 -16 27 -4 0 -3 -5 0 -10 3 -6 -1 -13 -9 -16 -9 -3 -13 -11 -10 -16 4 -6 10
-5 15 3 5 8 9 9 9 3 0 -6 -7 -17 -15 -24 -12 -10 -18 -10 -32 1 -10 8 -14 9
-10 2 4 -6 3 -14 -3 -18 -9 -6 -13 11 -13 58 0 9 -4 17 -9 17 -6 0 -8 -6 -5
-14 5 -13 -10 -36 -24 -36 -4 0 -5 10 -3 23 2 12 1 15 -2 7 -4 -8 -12 -18 -18
-22 -7 -5 -6 -8 4 -9 8 -1 20 -3 25 -3 15 -2 17 -21 3 -22 -7 0 -19 4 -25 9
-9 6 -13 5 -13 -3 0 -7 -9 -1 -20 12 -11 14 -29 28 -40 31 -32 8 -23 -10 10
-21 22 -8 28 -15 23 -28 -4 -12 -3 -15 5 -10 7 4 12 2 12 -3 0 -6 -9 -11 -20
-11 -16 0 -20 -7 -20 -30 0 -27 2 -29 19 -21 14 8 22 6 35 -8 9 -9 16 -24 15
-32 0 -8 -5 -3 -10 10 -7 18 -15 22 -35 18 -18 -3 -27 0 -32 14 -7 17 -10 19
-31 19 -5 0 -7 10 -4 23 3 12 3 19 -2 15 -4 -4 -10 -22 -14 -39 -4 -18 -13
-34 -21 -37 -10 -2 -11 -1 -4 5 6 4 14 24 18 43 l6 35 -18 -27 c-17 -26 -19
-27 -32 -9 -7 11 -20 17 -29 14 -12 -3 -12 -2 2 7 9 6 27 8 38 5 19 -6 20 -5
9 15 -7 12 -9 31 -7 42 5 19 4 19 -20 -3 -17 -16 -24 -19 -21 -8 5 13 -2 15
-47 11 -29 -2 -62 1 -74 7 -13 7 -27 8 -37 3 -15 -8 -15 -10 1 -16 9 -3 21 -3
27 0 6 4 8 -6 5 -24 -3 -20 0 -32 8 -36 10 -4 13 3 10 24 -3 28 -3 29 41 26
24 -1 47 -5 50 -9 7 -6 -10 -11 -28 -8 -4 0 -5 -5 -2 -13 3 -8 -3 -16 -15 -19
-22 -5 -29 7 -11 18 6 4 8 11 4 16 -9 15 -24 0 -24 -26 0 -18 -5 -23 -20 -22
-18 1 -27 13 -31 42 -2 13 -41 41 -53 37 -4 -1 -15 3 -24 10 -13 11 -14 11 -7
-1 6 -11 4 -13 -8 -8 -22 8 -22 -2 1 -20 15 -13 15 -13 -5 -3 -16 7 -23 7 -23
0 0 -5 -5 -10 -12 -10 -9 0 -9 3 0 12 19 19 14 26 -18 24 -21 0 -29 -5 -25
-14 3 -8 0 -10 -6 -6 -6 3 -9 17 -6 30 2 13 0 21 -4 18 -5 -3 -9 -13 -9 -24 0
-10 -7 -21 -16 -24 -14 -5 -15 -4 -5 7 9 12 5 13 -29 7 -23 -4 -43 -3 -46 2
-3 5 -11 4 -19 -2 -9 -8 -20 -8 -31 -2 -9 5 -26 7 -37 4 -13 -3 -18 -1 -14 5
4 6 0 14 -9 17 -8 3 -12 2 -9 -3 3 -5 1 -12 -5 -16 -5 -3 -10 0 -10 7 0 8 -3
9 -8 3 -4 -5 -18 -11 -32 -13 -20 -2 -22 -1 -10 7 13 9 13 11 -2 11 -10 0 -18
-6 -18 -12 -1 -8 -6 -6 -14 5 -17 23 -29 22 -21 -2 5 -17 2 -18 -41 -10 -26 5
-49 7 -52 4 -5 -4 7 -7 101 -25 32 -7 56 -14 54 -17 -11 -10 -160 28 -174 45
-8 9 -12 11 -8 5 3 -7 1 -13 -6 -13 -9 0 -11 31 -6 130 4 72 5 130 3 130 -2 0
-7 -44 -10 -97z m314 -203 c0 -10 8 -21 18 -23 14 -4 13 -5 -3 -5 -11 0 -42 6
-70 14 l-50 13 48 -5 c47 -5 49 -5 42 17 -5 14 -4 19 4 15 6 -4 11 -16 11 -26z
m887 -14 c0 -23 -2 -33 -4 -23 -3 11 -11 16 -18 13 -9 -3 -12 0 -8 10 3 9 -2
14 -17 14 -17 0 -20 3 -12 13 6 7 22 13 35 13 20 0 23 -5 24 -40z m-813 23 c3
-3 -4 -5 -14 -6 -11 -1 -20 2 -20 7 0 8 25 8 34 -1z m223 -11 c-3 -8 -6 -5 -6
6 -1 11 2 17 5 13 3 -3 4 -12 1 -19z m227 1 c-32 -13 -50 -9 -24 5 14 7 29 10
34 8 5 -3 1 -9 -10 -13z m-191 -6 c-3 -7 -9 -10 -14 -7 -14 8 -11 21 5 21 8 0
12 -6 9 -14z m450 6 c-6 -6 -9 -18 -6 -26 5 -12 1 -14 -15 -9 -25 8 -38 -10
-22 -29 18 -22 8 -38 -14 -22 -15 11 -17 17 -7 35 6 12 10 22 7 22 -2 0 -12 3
-22 7 -14 5 -16 2 -12 -14 5 -18 3 -19 -18 -9 -22 10 -22 11 -3 18 10 4 19 12
19 17 0 5 18 8 40 7 23 -2 43 1 46 6 3 4 8 8 12 8 3 0 1 -5 -5 -11z m-588 -9
c-3 -5 -12 -10 -18 -10 -7 0 -6 4 3 10 19 12 23 12 15 0z m-62 -18 c-4 -16 6
-20 66 -32 39 -7 69 -15 66 -18 -2 -3 -44 4 -91 14 -48 10 -81 20 -73 22 8 3
18 11 22 18 11 19 16 17 10 -4z m116 14 c-15 -13 -49 -25 -49 -17 0 5 8 12 18
14 24 6 36 8 31 3z m237 -23 c7 -10 13 -22 13 -28 0 -5 -4 -2 -10 8 -5 9 -20
17 -32 17 -18 0 -19 2 -7 10 20 13 21 13 36 -7z m-413 0 c-7 -2 -19 -2 -25 0
-7 3 -2 5 12 5 14 0 19 -2 13 -5z m704 -38 c-9 -19 -13 -21 -15 -9 -3 13 12
33 25 34 0 0 -4 -11 -10 -25z m-324 -39 c88 -17 178 -39 174 -42 -4 -4 -258
47 -317 64 -34 10 -34 10 13 7 26 -1 51 -6 54 -9 13 -12 33 -5 34 12 1 12 3
11 6 -4 3 -15 14 -24 36 -28z m86 37 c-3 -21 2 -33 13 -27 7 5 8 3 3 -6 -6
-10 -11 -9 -21 5 -7 10 -11 22 -8 26 6 11 14 12 13 2z m-62 -18 c0 -8 -4 -12
-9 -9 -5 3 -6 10 -3 15 9 13 12 11 12 -6z m194 -4 c-11 -7 -10 -10 5 -14 14
-3 12 -5 -8 -6 -31 -1 -47 15 -21 22 30 8 39 7 24 -2z m399 -46 c0 -2 -9 -3
-19 -2 -11 0 -18 5 -15 9 4 6 34 0 34 -7z m-90 -15 c-6 -11 -13 -20 -16 -20
-2 0 0 9 6 20 6 11 13 20 16 20 2 0 0 -9 -6 -20z m-190 -25 c30 -7 48 -14 40
-14 -16 -1 -158 27 -175 34 -18 8 79 -6 135 -20z m147 0 c0 -8 -4 -12 -9 -9
-4 3 -8 9 -8 15 0 5 4 9 8 9 5 0 9 -7 9 -15z m78 -5 c3 -5 1 -10 -4 -10 -6 0
-11 5 -11 10 0 6 2 10 4 10 3 0 8 -4 11 -10z m-138 -16 c-3 -3 -12 -4 -19 -1
-8 3 -5 6 6 6 11 1 17 -2 13 -5z m184 -34 c83 -17 158 -30 167 -29 30 3 42 -1
42 -11 0 -12 -13 -11 -225 32 -138 28 -177 38 -147 38 7 0 80 -14 163 -30z
m224 -10 c3 -5 -1 -10 -9 -10 -9 0 -16 5 -16 10 0 6 4 10 9 10 6 0 13 -4 16
-10z m127 -62 c57 -12 96 -23 88 -25 -8 -1 -62 8 -120 21 -58 13 -97 24 -88
25 10 1 64 -9 120 -21z"/>
<path d="M2329 5527 c12 -15 11 -17 -5 -14 -11 1 -24 6 -31 10 -6 4 -15 3 -18
-3 -4 -6 -3 -10 2 -9 22 4 25 -3 9 -20 -11 -12 -14 -21 -7 -26 6 -3 12 -4 12
-1 1 3 2 9 3 14 3 18 18 31 30 26 22 -8 28 12 8 27 -15 13 -16 12 -3 -4z"/>
<path d="M1842 5506 c7 -8 15 -12 17 -11 5 6 -10 25 -20 25 -5 0 -4 -6 3 -14z"/>
<path d="M2200 5505 c0 -8 2 -15 4 -15 2 0 6 7 10 15 3 8 1 15 -4 15 -6 0 -10
-7 -10 -15z"/>
<path d="M2380 5512 c0 -5 -10 -13 -22 -19 -12 -5 -18 -12 -12 -15 5 -4 19 2
32 12 13 11 18 21 12 25 -5 3 -10 2 -10 -3z"/>
<path d="M1883 5492 c0 -12 5 -22 9 -22 11 0 10 12 -2 30 -7 12 -9 10 -7 -8z"/>
<path d="M1925 5501 c-3 -5 -2 -12 3 -15 5 -3 9 1 9 9 0 17 -3 19 -12 6z"/>
<path d="M2115 5501 c-3 -5 -2 -12 3 -15 5 -3 9 1 9 9 0 17 -3 19 -12 6z"/>
<path d="M1816 5487 c3 -10 9 -15 12 -12 3 3 0 11 -7 18 -10 9 -11 8 -5 -6z"/>
<path d="M1997 5483 c3 -7 6 -13 8 -13 2 0 5 6 8 13 3 8 -1 14 -8 14 -7 0 -11
-6 -8 -14z"/>
<path d="M1706 5474 c-5 -14 -4 -15 9 -4 17 14 19 20 6 20 -5 0 -12 -7 -15
-16z"/>
<path d="M1945 5469 c-11 -16 -1 -19 13 -3 7 8 8 14 3 14 -5 0 -13 -5 -16 -11z"/>
<path d="M2054 5471 c4 -6 1 -11 -7 -11 -8 0 -17 -7 -21 -15 -5 -13 -2 -13 19
1 13 9 29 13 35 9 5 -3 10 -4 10 -1 0 3 -10 10 -21 17 -15 8 -19 8 -15 0z"/>
<path d="M1400 5446 c0 -8 4 -17 9 -20 5 -4 7 3 4 14 -6 23 -13 26 -13 6z"/>
<path d="M1900 5449 c0 -5 5 -7 10 -4 6 3 10 8 10 11 0 2 -4 4 -10 4 -5 0 -10
-5 -10 -11z"/>
<path d="M2278 5435 c-23 -20 -25 -24 -9 -22 11 1 18 4 15 8 -2 4 4 12 13 18
10 5 16 12 13 14 -3 3 -17 -5 -32 -18z"/>
<path d="M1566 5428 c3 -5 10 -6 15 -3 13 9 11 12 -6 12 -8 0 -12 -4 -9 -9z"/>
<path d="M2127 5426 c-4 -10 1 -12 14 -9 23 6 24 9 5 16 -8 3 -17 0 -19 -7z"/>
<path d="M2385 5429 c-4 -6 -5 -12 -2 -15 2 -3 7 2 10 11 7 17 1 20 -8 4z"/>
<path d="M2055 5410 c-4 -6 -11 -7 -17 -4 -6 4 -8 2 -5 -4 7 -10 32 -11 42 0
4 3 2 9 -4 12 -5 4 -12 2 -16 -4z"/>
<path d="M2548 5385 c31 -41 257 -264 303 -300 14 -11 -15 19 -65 66 -50 48
-131 129 -180 180 -49 52 -75 76 -58 54z"/>
<path d="M1439 5383 c-13 -16 -12 -17 4 -4 9 7 17 15 17 17 0 8 -8 3 -21 -13z"/>
<path d="M1590 5390 c0 -5 5 -10 10 -10 6 0 10 5 10 10 0 6 -4 10 -10 10 -5 0
-10 -4 -10 -10z"/>
<path d="M1897 5385 c-4 -8 -2 -17 3 -20 6 -4 10 3 10 14 0 25 -6 27 -13 6z"/>
<path d="M2085 5389 c-4 -6 -5 -12 -2 -15 2 -3 7 2 10 11 7 17 1 20 -8 4z"/>
<path d="M2336 5392 c-3 -5 1 -9 9 -9 8 0 15 4 15 9 0 4 -4 8 -9 8 -6 0 -12
-4 -15 -8z"/>
<path d="M2386 5385 c-3 -8 -1 -15 4 -15 6 0 10 7 10 15 0 8 -2 15 -4 15 -2 0
-6 -7 -10 -15z"/>
<path d="M1813 5384 c3 -5 -1 -17 -8 -27 -14 -20 -32 -6 -19 15 4 7 3 8 -4 4
-16 -10 -15 -22 4 -40 18 -19 36 -12 27 10 -5 14 -3 15 16 5 27 -15 43 -10 47
13 2 16 1 16 -14 3 -17 -15 -46 -12 -37 3 3 5 0 12 -6 16 -7 4 -10 3 -6 -2z"/>
<path d="M2444 5382 c3 -5 0 -13 -6 -15 -9 -4 -10 -6 -1 -6 17 -1 25 16 12 25
-7 4 -9 3 -5 -4z"/>
<path d="M2113 5359 c8 -14 14 -15 24 -7 16 13 10 21 -16 23 -16 1 -17 -2 -8
-16z"/>
<path d="M2162 5354 c-7 -8 -8 -14 -3 -14 10 0 25 19 20 25 -2 1 -10 -3 -17
-11z"/>
<path d="M2196 5357 c3 -10 9 -15 12 -12 3 3 0 11 -7 18 -10 9 -11 8 -5 -6z"/>
<path d="M1350 5350 c0 -5 5 -10 10 -10 6 0 10 5 10 10 0 6 -4 10 -10 10 -5 0
-10 -4 -10 -10z"/>
<path d="M1427 5345 c-4 -8 -3 -16 1 -19 4 -3 9 4 9 15 2 23 -3 25 -10 4z"/>
<path d="M1529 5348 c-11 -8 -10 -9 4 -4 20 6 22 -5 5 -23 -11 -10 -10 -11 4
-6 22 8 30 32 14 38 -7 3 -19 1 -27 -5z"/>
<path d="M1626 5345 c-11 -8 -15 -15 -9 -15 6 0 16 7 23 15 16 19 11 19 -14 0z"/>
<path d="M1740 5345 c-7 -9 -8 -15 -2 -15 5 0 12 7 16 15 3 8 4 15 2 15 -2 0
-9 -7 -16 -15z"/>
<path d="M1920 5353 c0 -19 21 -27 33 -13 9 10 9 11 -2 5 -8 -4 -17 -2 -22 6
-6 9 -9 10 -9 2z"/>
<path d="M1987 5353 c10 -3 10 -10 2 -26 -10 -21 -9 -21 5 -3 16 20 13 37 -7
35 -9 0 -9 -2 0 -6z"/>
<path d="M2253 5345 c0 -8 4 -15 9 -15 4 0 8 4 8 9 0 6 -4 12 -8 15 -5 3 -9
-1 -9 -9z"/>
<path d="M2385 5350 c3 -5 8 -10 11 -10 2 0 4 5 4 10 0 6 -5 10 -11 10 -5 0
-7 -4 -4 -10z"/>
<path d="M2325 5340 c3 -5 8 -10 11 -10 2 0 4 5 4 10 0 6 -5 10 -11 10 -5 0
-7 -4 -4 -10z"/>
<path d="M1480 5336 c0 -2 9 -6 20 -9 11 -3 18 -1 14 4 -5 9 -34 13 -34 5z"/>
<path d="M1896 5325 c-9 -26 -7 -32 5 -12 6 10 9 21 6 23 -2 3 -7 -2 -11 -11z"/>
<path d="M2187 5329 c7 -9 10 -19 6 -23 -4 -4 1 -4 10 0 10 3 17 7 15 8 -2 1
-12 8 -23 16 -18 14 -19 13 -8 -1z"/>
<path d="M1350 5310 c0 -11 2 -20 4 -20 2 0 6 9 9 20 3 11 1 20 -4 20 -5 0 -9
-9 -9 -20z"/>
<path d="M2231 5314 c0 -11 3 -14 6 -6 3 7 2 16 -1 19 -3 4 -6 -2 -5 -13z"/>
<path d="M2065 5310 c-3 -6 1 -7 9 -4 18 7 21 14 7 14 -6 0 -13 -4 -16 -10z"/>
<path d="M2420 5310 c0 -5 5 -10 11 -10 5 0 7 5 4 10 -3 6 -8 10 -11 10 -2 0
-4 -4 -4 -10z"/>
<path d="M2030 5300 c-9 -6 -10 -10 -3 -10 6 0 15 5 18 10 8 12 4 12 -15 0z"/>
<path d="M2127 5293 c-9 -9 -9 -53 1 -53 4 0 7 14 7 30 0 17 0 30 -1 30 0 0
-4 -3 -7 -7z"/>
<path d="M2490 5269 c0 -5 5 -7 10 -4 6 3 10 8 10 11 0 2 -4 4 -10 4 -5 0 -10
-5 -10 -11z"/>
<path d="M2172 5226 l1 -38 18 23 c10 13 19 29 19 34 0 6 -4 4 -9 -4 -7 -11
-11 -10 -19 5 -9 16 -11 13 -10 -20z"/>
<path d="M2531 5241 c-7 -5 -22 -6 -32 -4 -15 4 -18 2 -13 -12 5 -11 9 -13 14
-5 10 15 21 15 31 -2 13 -20 11 -26 -8 -24 -10 2 -23 -4 -30 -13 -18 -24 -16
-38 3 -15 15 19 15 18 11 -3 -6 -28 10 -33 50 -16 20 8 34 9 38 3 3 -6 10 -10
15 -10 6 0 2 9 -8 20 -9 11 -18 16 -20 10 -2 -5 -11 -10 -20 -10 -15 0 -15 2
-2 10 8 5 10 10 4 10 -6 0 -18 -9 -25 -21 -14 -20 -14 -20 -15 5 -1 14 3 24
10 23 6 -1 11 12 11 31 1 17 1 32 0 32 0 0 -6 -4 -14 -9z"/>
<path d="M2680 5199 c0 -6 -7 -8 -16 -5 -8 3 -12 2 -9 -3 9 -15 44 -9 38 6 -6
16 -13 17 -13 2z"/>
<path d="M2385 5189 c-9 -14 3 -59 16 -59 6 0 6 6 0 19 -10 19 -6 31 12 31 5
0 6 -8 2 -17 -5 -14 -4 -15 6 -6 10 10 9 15 -1 28 -15 18 -26 19 -35 4z"/>
<path d="M2607 5189 c7 -7 15 -10 18 -7 3 3 -2 9 -12 12 -14 6 -15 5 -6 -5z"/>
<path d="M2760 5126 c0 -2 7 -7 16 -10 8 -3 12 -2 9 4 -6 10 -25 14 -25 6z"/>
<path d="M1291 4723 c22 -127 159 -675 189 -755 26 -69 71 -133 107 -152 32
-16 243 -60 251 -51 3 3 2 5 -2 5 -29 0 -226 45 -249 56 -31 17 -89 102 -82
122 3 7 1 11 -4 8 -4 -3 -18 27 -29 67 -38 130 -161 641 -165 687 -2 25 -2 37
0 28 3 -11 14 -18 29 -18 23 0 24 -2 13 -22 -11 -20 -11 -22 3 -10 11 9 18 10
23 2 3 -5 1 -10 -5 -10 -7 0 -10 -5 -8 -11 2 -6 6 -9 10 -7 3 2 15 -5 27 -16
14 -13 24 -16 33 -9 7 6 22 8 33 6 11 -2 29 -4 40 -4 16 0 17 -2 5 -9 -8 -5
-27 -7 -41 -5 -32 6 -60 -19 -33 -29 12 -5 15 -2 10 11 -6 16 -5 16 11 -1 13
-13 15 -20 6 -23 -7 -3 -13 -11 -13 -19 0 -18 -15 -18 -44 2 -18 11 -26 12
-32 3 -4 -7 -3 -9 3 -6 5 4 19 -2 30 -12 16 -15 23 -17 42 -7 12 7 18 15 15
19 -4 4 5 7 19 7 33 0 34 -12 6 -39 l-22 -20 42 2 c44 1 54 12 20 22 -16 5
-18 10 -9 20 16 20 53 -3 46 -28 -3 -13 0 -17 11 -13 8 3 17 6 19 6 2 0 4 8 4
18 0 15 -2 15 -11 2 -9 -13 -10 -13 -6 0 2 8 9 15 15 15 13 0 28 15 16 16 -5
1 -21 2 -36 3 -32 2 -50 15 -22 17 10 1 26 0 34 -1 11 -1 10 3 -5 20 -17 19
-21 20 -23 6 -3 -14 -21 -21 -45 -17 -5 1 -6 -3 -2 -9 3 -5 -3 -10 -13 -10
-16 0 -32 17 -32 34 0 1 16 2 36 1 22 0 39 5 44 15 7 13 12 11 34 -9 14 -13
23 -28 20 -32 -3 -5 2 -9 10 -9 9 0 16 -9 16 -20 0 -11 5 -20 12 -20 6 0 8 -3
5 -6 -4 -4 -14 -1 -24 7 -12 10 -15 10 -9 1 4 -7 2 -20 -6 -30 -12 -16 -11
-16 6 -2 18 14 19 14 7 -8 -12 -22 -11 -23 9 -17 15 5 20 3 16 -3 -3 -6 2 -12
11 -14 13 -2 8 -8 -17 -20 -39 -19 -54 -15 -25 6 18 13 18 13 -3 12 -12 0 -22
-4 -22 -8 0 -5 0 -14 0 -22 0 -8 10 -13 25 -13 14 0 25 5 25 11 0 6 4 6 9 -2
4 -8 11 -13 15 -13 17 3 26 0 26 -7 0 -4 -15 -6 -33 -4 -30 3 -36 0 -55 -32
l-21 -36 20 -11 c12 -6 23 -8 27 -5 3 3 1 6 -5 6 -5 0 -10 7 -10 15 0 11 4 12
11 5 13 -13 56 -13 56 1 0 5 -4 8 -9 5 -5 -3 -22 1 -37 9 -16 8 -23 15 -16 15
7 0 10 5 6 11 -4 7 -1 10 7 7 8 -3 13 -11 11 -17 -1 -6 3 -11 9 -11 6 0 8 7 5
16 -3 9 -1 14 5 12 6 -2 10 -8 10 -13 0 -12 38 -34 58 -35 7 0 4 8 -10 19 -22
17 -22 19 -6 35 9 10 17 30 17 45 0 25 -3 28 -26 23 -19 -3 -25 -1 -20 7 4 6
11 9 16 6 5 -3 17 -1 27 4 10 5 26 12 36 15 9 3 17 11 16 18 0 10 -2 10 -6 0
-2 -6 -9 -9 -15 -6 -5 3 0 13 12 21 29 21 35 11 15 -27 -19 -37 -14 -49 12
-29 16 12 17 12 6 -1 -8 -10 -9 -21 -3 -30 6 -9 10 -10 10 -3 0 6 9 11 20 10
11 -1 19 -6 17 -11 -4 -13 -39 -17 -53 -5 -8 7 -14 6 -19 -1 -3 -5 -1 -10 4
-10 6 0 11 -5 11 -11 0 -15 -18 -2 -31 23 -9 16 -8 19 2 13 9 -6 11 -3 6 9 -4
10 -7 20 -7 22 0 2 -8 4 -17 4 -10 0 -14 -4 -8 -8 12 -8 14 -72 3 -72 -5 0 -8
-5 -8 -11 0 -8 5 -8 15 1 11 9 18 10 28 1 8 -6 18 -7 22 -3 5 4 5 -2 1 -12 -5
-16 -4 -17 9 -6 8 7 13 15 11 19 -3 4 5 7 17 8 12 0 16 -1 9 -4 -10 -4 -10 -8
-2 -18 15 -19 39 -8 33 15 -5 20 12 36 22 20 3 -5 1 -10 -5 -10 -6 0 -9 -4 -5
-10 3 -5 13 -6 22 -3 11 4 14 3 9 -6 -5 -8 -1 -14 12 -18 17 -4 18 -8 9 -18
-7 -7 -16 -10 -21 -7 -5 3 -6 0 -3 -6 12 -18 42 -6 42 17 0 12 7 26 14 30 8 5
9 11 3 15 -12 7 -9 41 4 41 17 0 34 16 28 26 -3 5 -10 6 -16 3 -7 -4 -8 -2 -4
4 4 6 13 9 21 5 17 -6 21 -33 5 -33 -5 0 -10 -7 -10 -16 0 -14 -3 -14 -15 -4
-14 11 -14 10 -7 -11 11 -28 6 -73 -8 -77 -6 -2 -7 -9 -3 -14 4 -7 -2 -9 -15
-6 -14 4 -20 2 -15 -4 3 -6 -1 -16 -10 -23 -14 -10 -14 -12 3 -23 16 -10 18
-9 15 9 -5 26 21 36 49 19 19 -12 20 -11 8 2 -10 13 -10 17 3 22 10 4 19 -3
27 -19 6 -13 15 -22 20 -19 5 3 2 16 -6 29 -19 29 -7 40 20 20 10 -8 14 -15 8
-15 -13 0 -16 -48 -3 -56 5 -3 9 -13 9 -22 0 -15 -2 -15 -10 -2 -6 10 -13 11
-19 5 -7 -7 -7 -16 -1 -25 7 -11 10 -11 10 -2 0 7 4 11 9 7 5 -3 12 -1 16 5 4
6 12 7 18 3 7 -4 5 4 -4 17 -8 14 -19 34 -23 45 -6 16 -5 18 5 8 17 -17 26
-16 26 1 0 8 -7 12 -16 9 -14 -4 -14 -3 -1 9 9 7 15 26 15 41 -1 25 1 26 11
12 7 -9 14 -12 15 -6 7 17 31 16 34 -1 2 -10 -1 -18 -6 -18 -5 0 -9 6 -9 13 0
9 -3 8 -9 -2 -5 -7 -14 -10 -20 -7 -6 4 -11 2 -11 -3 0 -6 4 -11 10 -11 5 0 7
-6 4 -14 -3 -7 1 -16 9 -19 10 -4 13 2 9 21 -4 26 -4 26 11 7 8 -10 13 -25 10
-32 -3 -7 0 -13 6 -13 6 0 10 3 10 8 -4 22 3 34 15 29 8 -3 17 1 20 9 3 8 2
12 -3 9 -5 -3 -12 -1 -15 4 -3 5 1 12 10 15 11 4 18 -1 21 -14 3 -11 12 -20
19 -20 8 0 14 -4 14 -9 0 -4 8 -8 18 -8 39 0 47 -4 27 -13 -17 -7 -15 -9 13
-9 21 -1 32 -6 32 -16 0 -8 5 -15 10 -15 6 0 10 -7 10 -15 0 -9 6 -12 17 -8
11 4 14 3 9 -5 -4 -7 -2 -12 4 -12 18 0 6 35 -14 40 -25 7 -40 46 -20 54 8 3
13 2 10 -2 -6 -10 16 -37 37 -45 10 -4 15 -11 12 -17 -3 -5 -3 -10 2 -11 53
-5 76 -2 89 12 13 15 13 17 0 22 -11 4 -13 1 -9 -10 4 -10 2 -14 -4 -10 -6 4
-22 3 -36 -2 -21 -8 -26 -6 -30 10 -3 10 -12 19 -21 19 -22 0 -22 65 -1 74 8
3 15 15 15 26 0 17 3 19 19 8 11 -7 17 -18 14 -27 -5 -13 -3 -14 8 -3 17 15
33 16 23 0 -5 -8 -2 -9 9 -5 9 3 16 3 15 -1 -1 -4 2 -19 6 -34 l8 -26 20 20
c14 14 23 17 30 10 6 -6 16 -8 23 -6 7 3 15 -4 18 -16 4 -17 2 -20 -14 -15
-11 4 -19 2 -19 -5 0 -6 5 -8 12 -4 7 4 8 3 4 -5 -6 -9 -11 -9 -22 0 -11 9
-14 9 -14 -1 0 -10 -3 -10 -14 -1 -12 10 -14 9 -11 -6 2 -10 4 -20 4 -22 1 -3
6 0 13 7 16 16 31 15 21 0 -4 -7 5 -5 19 4 20 13 28 14 32 5 3 -6 3 3 0 21 -2
18 -1 38 3 45 4 6 8 22 9 35 2 19 0 21 -11 12 -8 -6 -11 -18 -8 -26 6 -16 -12
-19 -22 -4 -4 6 -11 8 -16 5 -5 -3 -6 1 -3 10 6 14 8 14 20 -2 13 -16 13 -15
4 10 -6 17 -6 27 0 27 6 0 10 -6 10 -12 0 -8 7 -5 15 6 9 12 15 15 15 7 0 -11
3 -11 15 -1 14 11 19 7 16 -12 0 -5 3 -8 8 -8 5 0 11 -9 14 -21 3 -12 10 -18
16 -14 6 3 11 1 11 -4 0 -18 -18 -12 -37 12 -18 23 -43 26 -43 6 0 -6 4 -8 9
-4 5 3 13 1 16 -5 4 -6 3 -9 -2 -8 -4 2 -8 -1 -8 -7 0 -5 3 -9 7 -8 5 2 8 -5
9 -15 0 -16 1 -16 7 1 7 16 9 16 30 2 12 -9 22 -21 22 -27 0 -6 -7 -5 -17 3
-14 12 -16 12 -8 -1 5 -8 9 -25 9 -39 1 -13 7 -26 14 -28 9 -4 10 1 2 21 -8
21 -6 27 11 36 10 6 25 8 31 4 6 -4 8 -3 4 4 -3 6 -2 13 3 16 5 3 11 -1 15 -9
3 -8 -1 -18 -8 -22 -18 -11 -26 -37 -15 -54 7 -12 9 -12 9 1 1 12 4 11 15 -4
8 -10 12 -24 8 -30 -3 -6 -2 -8 2 -3 5 4 9 18 10 31 0 17 -4 22 -14 18 -10 -4
-12 -1 -6 8 5 9 4 11 -3 6 -7 -4 -12 -3 -12 3 0 14 21 26 50 27 39 3 40 3 41
22 0 10 5 6 11 -12 8 -21 13 -25 19 -15 4 7 11 11 14 8 3 -4 -4 -17 -15 -30
-15 -17 -23 -20 -27 -11 -4 10 -9 9 -20 -5 -14 -17 -14 -17 -10 5 3 13 0 22
-7 22 -8 0 -11 -10 -8 -29 3 -20 8 -28 18 -24 8 3 14 10 14 17 0 7 3 7 8 1 11
-16 41 -15 35 1 -3 8 2 17 11 20 9 3 14 9 12 13 -3 4 0 13 5 21 8 11 9 7 7
-17 -4 -28 -2 -31 14 -22 10 5 18 8 18 5 0 -2 16 0 35 4 33 7 47 -1 25 -15 -6
-4 -8 -11 -5 -16 11 -16 65 20 66 44 0 21 1 21 8 2 5 -11 4 -25 -1 -32 -7 -8
-3 -10 13 -6 17 5 20 3 14 -7 -5 -8 -4 -11 3 -6 6 3 13 2 17 -4 3 -5 -1 -10
-9 -10 -9 0 -16 -4 -16 -9 0 -4 11 -6 25 -3 20 3 24 9 19 24 -4 14 -2 18 5 14
7 -5 8 -1 4 10 -5 13 -2 15 17 9 16 -5 20 -4 15 5 -5 8 0 7 14 -2 12 -7 21
-16 21 -19 0 -4 6 -9 13 -12 13 -5 15 -1 19 42 2 12 8 16 20 13 10 -2 16 -8
13 -12 -7 -12 22 -33 37 -27 8 3 6 6 -5 6 -10 1 -16 5 -12 10 3 5 1 12 -5 16
-5 3 -10 11 -10 18 0 6 12 -1 26 -16 14 -16 23 -35 20 -43 -4 -11 -2 -12 13
-5 15 9 18 6 19 -19 1 -31 32 -88 32 -60 1 12 3 11 11 -2 5 -10 17 -18 25 -18
9 0 12 -5 8 -12 -4 -7 -3 -8 5 -4 14 9 5 26 -14 26 -7 0 -16 7 -19 16 -3 8
-10 13 -15 9 -12 -7 -22 25 -19 63 1 21 6 28 16 24 8 -3 18 1 23 9 7 11 9 11
9 -3 0 -10 -5 -18 -10 -18 -6 0 -8 -11 -4 -25 5 -20 3 -24 -10 -19 -9 3 -16 2
-16 -4 0 -5 9 -12 20 -15 11 -3 18 -1 14 4 -3 5 4 9 15 9 12 0 21 -4 21 -10 0
-5 5 -10 11 -10 5 0 7 5 4 10 -7 11 6 13 29 4 9 -3 14 -9 11 -13 -2 -4 2 -8
10 -8 8 0 15 4 15 8 0 3 10 9 23 12 21 6 21 5 3 -8 -15 -11 -16 -17 -7 -28 13
-16 61 -20 61 -5 0 5 -5 6 -10 3 -12 -8 -24 20 -15 34 8 14 58 -18 52 -33 -3
-7 5 -13 16 -14 17 -1 19 1 7 8 -8 5 -10 10 -5 10 6 0 -3 9 -18 19 -20 13 -25
20 -15 24 7 4 0 4 -15 2 -24 -3 -27 -2 -16 11 6 8 9 18 5 22 -4 4 -14 -2 -22
-13 -14 -19 -15 -19 -10 8 2 15 0 27 -5 27 -9 0 -12 -10 -12 -42 0 -10 -6 -18
-14 -18 -9 0 -11 5 -7 13 5 8 2 7 -9 -2 -27 -22 -31 -5 -5 21 13 13 22 26 21
29 -1 3 15 5 35 4 20 -1 35 -4 32 -7 -3 -3 1 -12 9 -21 15 -19 56 -24 46 -6
-4 6 -13 8 -21 5 -8 -3 -14 -1 -14 4 0 16 37 12 43 -4 3 -8 -1 -20 -9 -27 -10
-8 -11 -16 -5 -22 6 -6 15 -4 26 7 23 22 34 20 28 -5 -5 -19 -4 -20 15 -10 14
8 29 8 52 0 23 -9 34 -9 43 0 14 14 27 14 27 0 0 -5 -4 -7 -10 -4 -6 3 -7 -1
-4 -9 3 -9 1 -16 -5 -16 -6 0 -11 -5 -11 -11 0 -8 4 -9 13 0 8 6 18 7 22 3 5
-4 6 -2 2 4 -3 5 7 15 22 21 23 8 28 7 28 -6 0 -17 -25 -46 -33 -38 -3 2 2 12
11 21 9 9 11 16 5 16 -6 0 -13 -7 -16 -15 -4 -8 -12 -15 -20 -15 -8 0 -14 -5
-14 -11 0 -6 6 -9 14 -6 8 3 17 1 19 -6 6 -16 48 28 50 53 1 22 17 16 17 -7 0
-10 6 -14 20 -10 11 3 23 1 26 -4 3 -5 9 -7 14 -4 5 3 10 -7 12 -22 l4 -28 11
25 c7 14 12 18 13 10 0 -12 2 -12 9 -2 7 11 9 11 14 -1 3 -8 -3 -24 -14 -36
-11 -12 -15 -21 -9 -21 6 0 9 -4 6 -8 -3 -5 1 -9 9 -9 7 0 12 8 10 18 -6 31
19 52 63 53 45 1 49 5 30 24 -8 8 -8 12 -1 12 6 0 14 -7 17 -16 9 -24 19 -10
11 15 -4 12 -12 18 -21 14 -8 -3 -14 1 -14 10 0 28 16 26 34 -4 13 -22 21 -27
30 -20 7 6 16 8 19 4 4 -3 7 0 7 8 0 12 2 12 9 0 12 -18 2 -43 -13 -34 -6 4
-4 -2 4 -13 8 -10 15 -20 16 -22 0 -1 9 8 20 20 10 12 14 18 7 15 -6 -4 -14
-3 -17 2 -3 5 1 11 9 15 8 3 15 1 15 -5 0 -6 4 -8 9 -5 5 3 8 -2 7 -12 -1 -12
5 -16 23 -14 14 2 21 0 17 -6 -11 -19 14 -24 38 -9 17 12 26 13 35 4 8 -8 11
-8 11 3 0 9 5 8 20 -5 18 -16 25 -14 21 8 -2 11 17 8 25 -4 9 -15 -16 -30 -42
-24 -18 4 -20 1 -16 -23 4 -19 7 -22 10 -9 2 9 8 17 13 17 6 0 7 -5 4 -10 -4
-6 -1 -9 7 -8 7 2 12 -3 11 -9 -2 -7 2 -13 7 -13 6 0 10 7 10 16 0 8 4 13 10
9 5 -3 7 -12 4 -19 -3 -8 -1 -17 5 -21 7 -3 8 0 5 9 -3 9 -1 16 5 16 6 0 10 4
8 9 -1 5 3 9 8 10 6 1 10 -2 10 -6 1 -5 6 -18 13 -29 6 -12 9 -23 7 -26 -2 -2
4 -4 14 -4 11 0 17 6 14 13 -3 7 -9 10 -14 7 -20 -12 -8 16 13 30 27 19 18 32
-12 16 -12 -7 -20 -8 -16 -2 3 5 0 15 -8 21 -10 9 -16 8 -26 -4 -19 -23 -30
-18 -30 12 0 26 1 26 14 7 14 -18 15 -18 21 -1 4 9 13 17 21 17 7 0 11 -6 8
-14 -10 -25 17 -29 47 -7 23 17 33 19 47 11 14 -9 13 -10 -7 -4 -15 4 -21 2
-17 -4 3 -6 0 -13 -6 -16 -9 -3 -8 -8 5 -16 9 -6 15 -15 12 -21 -4 -5 -1 -10
4 -10 21 -3 26 -4 38 -12 6 -4 14 -3 17 2 7 11 -22 23 -37 15 -9 -5 -9 -4 -1
5 8 9 18 9 39 1 22 -8 31 -7 45 5 14 13 17 13 17 0 0 -8 -4 -12 -8 -9 -4 2
-10 0 -14 -6 -6 -9 14 -14 43 -11 15 2 16 -11 1 -26 -7 -7 -5 -15 7 -28 17
-16 18 -16 26 4 4 11 15 21 25 21 17 1 17 1 0 11 -18 11 -41 3 -32 -11 3 -5 1
-11 -4 -14 -5 -4 -13 -1 -17 5 -5 8 -3 9 6 4 8 -5 11 -4 6 3 -3 6 -1 14 5 18
8 4 4 12 -12 21 -21 11 -21 13 -4 11 11 -2 22 -6 25 -9 3 -4 16 -9 30 -13 l25
-7 -25 15 c-25 15 -25 15 17 16 23 0 45 -5 48 -10 4 -6 14 -9 22 -8 9 2 18 -3
20 -9 3 -7 0 -13 -6 -13 -6 0 -11 -10 -12 -22 0 -20 -7 -14 -12 9 -2 11 -30
43 -38 43 -4 0 -9 -9 -12 -20 -3 -11 -1 -20 4 -20 5 0 9 6 9 13 0 6 5 4 11 -7
9 -14 8 -21 -2 -28 -11 -8 -10 -9 3 -5 22 8 30 -3 16 -22 -7 -9 -9 -13 -4 -9
5 4 22 0 38 -8 24 -12 29 -13 26 -2 -3 7 -10 14 -16 14 -7 1 -17 2 -23 3 -8 1
-8 5 0 15 7 8 21 12 31 9 24 -6 37 21 20 42 -8 10 -9 15 -2 15 6 0 14 -5 18
-12 5 -7 11 -5 21 7 7 11 13 15 13 9 0 -5 -9 -20 -20 -34 -20 -26 -25 -41 -12
-39 20 3 25 -2 12 -12 -13 -9 -13 -10 0 -6 8 2 14 10 13 16 -2 6 6 11 16 11
24 0 37 -30 13 -31 -12 0 -10 -3 7 -10 13 -5 26 -7 29 -4 3 3 0 5 -8 5 -10 0
-10 3 0 15 6 8 9 18 6 23 -3 4 8 6 24 4 l30 -4 -23 -19 -22 -19 27 13 c28 13
42 49 25 66 -7 7 -7 11 -1 11 15 0 35 -38 24 -45 -13 -8 -13 -35 0 -35 5 0 7
7 4 15 -5 12 3 15 42 14 27 -1 41 -3 32 -6 -10 -2 -18 -9 -18 -15 0 -6 10 -4
23 4 30 20 117 21 117 1 0 -8 -4 -11 -10 -8 -5 3 -7 0 -5 -7 3 -8 -2 -47 -11
-88 -9 -41 -18 -86 -20 -100 -11 -68 17 28 39 135 l25 115 -22 1 c-15 1 -13 3
9 9 38 9 28 13 -110 39 -97 19 -878 181 -1185 246 -63 14 -315 65 -560 115
-981 201 -1054 216 -1510 311 -661 138 -766 159 -777 159 -6 0 -3 -40 8 -107z
m33 79 c2 -4 -4 -8 -15 -8 -10 0 -19 4 -19 8 0 4 6 8 14 8 8 0 17 -4 20 -8z
m86 -12 c20 -6 21 -8 5 -8 -11 0 -33 4 -50 8 -27 7 -27 8 -5 8 14 0 36 -4 50
-8z m67 -16 c-3 -3 -12 -4 -19 -1 -8 3 -5 6 6 6 11 1 17 -2 13 -5z m142 -30
c9 -8 -45 -2 -64 6 -14 7 -8 8 20 3 22 -3 42 -7 44 -9z m94 -21 c-7 -2 -19 -2
-25 0 -7 3 -2 5 12 5 14 0 19 -2 13 -5z m100 -20 c-7 -2 -19 -2 -25 0 -7 3 -2
5 12 5 14 0 19 -2 13 -5z m-398 -12 c3 -5 0 -13 -6 -17 -7 -4 -9 -3 -5 4 3 5
0 13 -6 15 -9 4 -10 6 -1 6 6 1 14 -3 18 -8z m452 3 c-3 -3 -12 -4 -19 -1 -8
3 -5 6 6 6 11 1 17 -2 13 -5z m40 -10 c-3 -3 -12 -4 -19 -1 -8 3 -5 6 6 6 11
1 17 -2 13 -5z m-372 -22 c-3 -3 -11 0 -18 7 -9 10 -8 11 6 5 10 -3 15 -9 12
-12z m462 2 c-3 -3 -12 -4 -19 -1 -8 3 -5 6 6 6 11 1 17 -2 13 -5z m100 -20
c-3 -3 -12 -4 -19 -1 -8 3 -5 6 6 6 11 1 17 -2 13 -5z m-457 -10 c0 -8 -19
-13 -24 -6 -3 5 1 9 9 9 8 0 15 -2 15 -3z m30 -22 c-6 -2 -8 -8 -4 -13 3 -5
-2 -9 -10 -9 -9 0 -16 5 -16 10 0 6 5 10 10 10 6 0 10 8 10 18 0 14 2 15 10 2
6 -10 6 -16 0 -18z m75 8 c-3 -5 1 -10 10 -10 9 0 13 -5 10 -11 -4 -5 -12 -8
-18 -6 -18 6 -68 -33 -66 -52 3 -32 -1 -51 -12 -51 -5 0 -7 4 -4 10 3 6 -1 7
-9 4 -17 -7 -22 11 -6 21 5 3 7 12 4 19 -3 8 4 16 16 19 12 3 19 10 15 16 -5
10 7 15 27 12 4 0 12 8 18 19 6 11 13 20 16 20 3 0 2 -4 -1 -10z m452 4 c-3
-3 -12 -4 -19 -1 -8 3 -5 6 6 6 11 1 17 -2 13 -5z m152 -30 c10 -9 -45 -3 -59
6 -11 7 -5 8 20 4 19 -4 37 -8 39 -10z m38 -10 c-3 -3 -12 -4 -19 -1 -8 3 -5
6 6 6 11 1 17 -2 13 -5z m40 -10 c-3 -3 -12 -4 -19 -1 -8 3 -5 6 6 6 11 1 17
-2 13 -5z m-543 -36 c16 -11 -6 -10 -23 1 -8 5 -10 14 -5 22 6 10 9 10 12 -1
3 -8 10 -18 16 -22z m-128 10 c4 -6 3 -8 -3 -5 -6 4 -15 -5 -21 -18 -15 -32
-37 -32 -38 -1 -1 18 2 22 17 19 11 -3 19 0 19 6 0 14 17 14 26 -1z m781 6
c-3 -3 -12 -4 -19 -1 -8 3 -5 6 6 6 11 1 17 -2 13 -5z m46 -11 c-7 -2 -19 -2
-25 0 -7 3 -2 5 12 5 14 0 19 -2 13 -5z m-653 -18 c0 -8 -2 -15 -4 -15 -2 0
-6 7 -10 15 -3 8 -1 15 4 15 6 0 10 -7 10 -15z m-85 -13 c-3 -3 -11 0 -18 7
-9 10 -8 11 6 5 10 -3 15 -9 12 -12z m915 -2 c20 -6 21 -8 5 -8 -11 0 -31 4
-45 8 -20 6 -21 8 -5 8 11 0 31 -4 45 -8z m-560 -6 c0 -8 -19 -13 -24 -6 -3 5
1 9 9 9 8 0 15 -2 15 -3z m-353 -10 c-3 -3 -12 -4 -19 -1 -8 3 -5 6 6 6 11 1
17 -2 13 -5z m980 0 c-3 -3 -12 -4 -19 -1 -8 3 -5 6 6 6 11 1 17 -2 13 -5z
m-931 -33 c0 -11 -5 -17 -13 -14 -10 4 -11 9 -2 19 15 18 15 18 15 -5z m49 9
c3 -6 -1 -7 -9 -4 -18 7 -21 14 -7 14 6 0 13 -4 16 -10z m98 -16 c-5 -14 -3
-15 16 -4 19 10 25 9 37 -7 7 -10 14 -13 14 -6 0 7 7 10 15 6 12 -4 10 -9 -11
-19 -33 -17 -35 -17 -28 0 4 9 -3 13 -23 12 -22 -1 -28 4 -29 21 -1 12 2 20 7
17 4 -2 5 -12 2 -20z m107 0 c0 -2 -9 0 -20 6 -11 6 -20 13 -20 16 0 2 9 0 20
-6 11 -6 20 -13 20 -16z m48 -10 c-1 -19 -5 -34 -9 -34 -4 0 -6 14 -4 30 2 17
0 28 -5 25 -5 -3 -11 -2 -14 3 -2 4 4 8 14 9 16 1 19 -5 18 -33z m56 19 c-10
-7 -25 -12 -33 -12 -13 1 -12 2 2 6 9 2 17 8 17 12 0 4 7 8 16 8 14 0 14 -2
-2 -14z m673 11 c-3 -3 -12 -4 -19 -1 -8 3 -5 6 6 6 11 1 17 -2 13 -5z m46
-11 c-7 -2 -19 -2 -25 0 -7 3 -2 5 12 5 14 0 19 -2 13 -5z m-1259 -9 c-7 -3
-11 -13 -9 -22 1 -9 0 -11 -2 -4 -3 7 -10 9 -16 5 -7 -4 -6 1 2 10 7 9 19 17
25 16 8 0 8 -2 0 -5z m227 -11 c12 -14 12 -15 0 -9 -8 5 -17 3 -22 -5 -7 -11
-9 -11 -9 2 0 13 8 29 15 29 2 0 9 -8 16 -17z m1076 11 c-3 -3 -12 -4 -19 -1
-8 3 -5 6 6 6 11 1 17 -2 13 -5z m50 -10 c-3 -3 -12 -4 -19 -1 -8 3 -5 6 6 6
11 1 17 -2 13 -5z m-800 -32 c-1 -9 -6 -23 -11 -30 -4 -7 -6 -14 -5 -15 2 -2
13 -9 23 -17 18 -14 19 -14 8 7 -7 13 -8 24 -3 28 13 7 62 -16 55 -27 -3 -4
-12 -1 -20 7 -9 8 -21 15 -27 15 -7 0 -3 -7 8 -16 11 -8 19 -18 18 -22 -1 -4
4 -7 11 -6 6 1 13 -7 13 -17 2 -18 1 -18 -19 0 -11 11 -26 17 -34 14 -7 -3
-24 8 -38 24 -22 24 -27 26 -45 16 -27 -17 -36 -16 -22 0 6 8 8 16 5 19 -2 3
7 6 21 6 14 0 25 -4 25 -9 0 -5 5 -9 11 -9 5 0 8 4 4 9 -3 5 0 13 6 16 5 4 8
14 5 22 -3 8 -1 11 4 8 5 -3 9 -14 7 -23z m850 22 c-3 -3 -12 -4 -19 -1 -8 3
-5 6 6 6 11 1 17 -2 13 -5z m-1069 -18 c23 5 25 4 9 -6 -18 -11 -18 -12 0 -25
14 -11 16 -16 6 -26 -11 -11 -13 -9 -14 7 0 17 -1 17 -9 -3 -8 -21 -21 -28
-42 -24 -5 0 -8 -4 -8 -11 0 -6 -2 -9 -5 -6 -3 3 -1 18 5 33 10 27 11 27 25 9
8 -10 15 -15 15 -10 0 5 -7 17 -15 26 -10 11 -13 24 -8 36 4 11 8 13 11 6 2
-7 14 -10 30 -6z m256 6 c3 -5 -1 -9 -9 -9 -8 0 -12 4 -9 9 3 4 7 8 9 8 2 0 6
-4 9 -8z m863 2 c-3 -3 -12 -4 -19 -1 -8 3 -5 6 6 6 11 1 17 -2 13 -5z m-1037
-14 c0 -5 -5 -10 -11 -10 -5 0 -7 5 -4 10 3 6 8 10 11 10 2 0 4 -4 4 -10z
m1077 4 c-3 -3 -12 -4 -19 -1 -8 3 -5 6 6 6 11 1 17 -2 13 -5z m-1257 -24 c0
-5 -5 -10 -11 -10 -5 0 -7 5 -4 10 3 6 8 10 11 10 2 0 4 -4 4 -10z m137 -5 c0
-8 -4 -12 -9 -9 -4 3 -8 9 -8 15 0 5 4 9 8 9 5 0 9 -7 9 -15z m297 3 c-3 -4 4
-8 15 -8 12 0 21 -4 21 -10 0 -10 -27 -3 -46 11 -6 5 -15 5 -19 1 -5 -4 -5 -2
-2 4 3 6 13 11 21 11 8 0 13 -4 10 -9z m196 2 c-8 -5 -9 -13 -4 -21 6 -12 5
-12 -9 0 -11 9 -17 10 -17 2 0 -6 -4 -11 -9 -11 -23 0 2 35 26 37 17 1 21 -2
13 -7z m347 4 c-3 -3 -12 -4 -19 -1 -8 3 -5 6 6 6 11 1 17 -2 13 -5z m390 0
c-3 -3 -12 -4 -19 -1 -8 3 -5 6 6 6 11 1 17 -2 13 -5z m40 -10 c-3 -3 -12 -4
-19 -1 -8 3 -5 6 6 6 11 1 17 -2 13 -5z m60 -10 c-3 -3 -12 -4 -19 -1 -8 3 -5
6 6 6 11 1 17 -2 13 -5z m-1038 -18 c9 -11 9 -16 0 -21 -10 -7 -28 10 -29 28
0 12 17 8 29 -7z m412 -31 c20 13 8 -15 -13 -29 -19 -14 -24 -14 -36 -2 -15
15 -7 41 9 31 5 -4 9 -2 9 4 0 5 -4 13 -10 16 -5 3 -10 11 -10 17 0 6 9 -1 21
-16 11 -14 25 -24 30 -21z m18 22 c0 -9 -2 -8 -6 1 -2 6 -10 9 -15 6 -7 -4 -8
-2 -4 5 9 13 26 5 25 -12z m84 6 c-3 -7 -6 -13 -8 -13 -2 0 -5 6 -8 13 -3 8 1
14 8 14 7 0 11 -6 8 -14z m82 7 c-3 -5 -12 -10 -18 -10 -7 0 -6 4 3 10 19 12
23 12 15 0z m-885 -15 c0 -8 -2 -15 -4 -15 -2 0 -6 7 -10 15 -3 8 -1 15 4 15
6 0 10 -7 10 -15z m90 -5 c0 -5 -5 -10 -11 -10 -5 0 -7 5 -4 10 3 6 8 10 11
10 2 0 4 -4 4 -10z m370 0 c0 -5 -2 -10 -4 -10 -3 0 -8 5 -11 10 -3 6 -1 10 4
10 6 0 11 -4 11 -10z m1003 3 c-7 -2 -19 -2 -25 0 -7 3 -2 5 12 5 14 0 19 -2
13 -5z m-543 -38 c0 -4 -6 -13 -14 -20 -11 -12 -17 -11 -35 1 -17 13 -25 13
-37 3 -12 -10 -13 -9 -8 6 6 14 4 16 -7 10 -8 -5 -11 -5 -6 1 5 5 12 9 15 9 4
0 13 4 21 9 10 6 12 5 7 -2 -4 -7 -1 -12 8 -12 9 0 16 -5 16 -11 0 -5 4 -8 9
-5 5 3 6 16 3 29 -5 21 -5 21 11 5 9 -9 17 -19 17 -23z m597 29 c-3 -3 -12 -4
-19 -1 -8 3 -5 6 6 6 11 1 17 -2 13 -5z m-790 -26 c-3 -8 -6 -5 -6 6 -1 11 2
17 5 13 3 -3 4 -12 1 -19z m830 16 c-3 -3 -12 -4 -19 -1 -8 3 -5 6 6 6 11 1
17 -2 13 -5z m-790 -16 c2 6 11 12 20 12 12 0 12 -2 1 -13 -24 -24 -56 -38
-63 -27 -3 5 1 10 9 10 10 0 13 6 10 18 -5 15 -4 15 6 2 9 -11 13 -12 17 -2z
m179 -23 c-1 -39 -2 -40 -20 -23 -11 11 -11 17 3 35 9 12 17 23 17 23 1 0 1
-16 0 -35z m671 29 c-3 -3 -12 -4 -19 -1 -8 3 -5 6 6 6 11 1 17 -2 13 -5z
m-580 -26 c-3 -8 -6 -5 -6 6 -1 11 2 17 5 13 3 -3 4 -12 1 -19z m350 0 c-3 -8
-6 -5 -6 6 -1 11 2 17 5 13 3 -3 4 -12 1 -19z m270 16 c-3 -3 -12 -4 -19 -1
-8 3 -5 6 6 6 11 1 17 -2 13 -5z m-562 -27 c1 -7 7 -11 14 -9 7 1 10 -2 6 -7
-3 -6 -11 -8 -19 -5 -7 3 -18 -5 -24 -18 -10 -21 -11 -20 -11 14 -1 31 2 36
16 31 12 -5 14 -3 8 8 -5 8 -5 11 1 6 5 -5 9 -14 9 -20z m670 8 c53 -13 55
-14 15 -10 -54 6 -123 23 -95 24 11 0 47 -6 80 -14z m-785 -37 c0 -39 -6 -34
-13 10 -3 18 -1 30 4 26 5 -3 9 -19 9 -36z m240 32 c0 -5 -2 -10 -4 -10 -3 0
-8 5 -11 10 -3 6 -1 10 4 10 6 0 11 -4 11 -10z m-44 -36 c2 -21 0 -23 -12 -13
-10 8 -11 15 -4 24 5 6 8 15 5 18 -3 4 -2 5 2 2 3 -3 8 -17 9 -31z m164 22 c0
-3 -4 -8 -10 -11 -5 -3 -10 -1 -10 4 0 6 5 11 10 11 6 0 10 -2 10 -4z m545 -6
c25 -11 -1 -11 -35 0 -20 6 -21 8 -5 8 11 0 29 -3 40 -8z m-965 -4 c0 -2 -7
-6 -15 -10 -8 -3 -15 -1 -15 4 0 6 7 10 15 10 8 0 15 -2 15 -4z m1026 -14
c-10 -2 -22 0 -28 6 -6 6 0 7 19 4 21 -5 23 -7 9 -10z m-540 -22 c9 0 12 5 9
10 -3 6 1 10 10 10 9 0 14 -4 10 -9 -3 -5 -1 -13 5 -16 19 -12 -9 -34 -40 -32
-15 1 -26 5 -23 10 2 4 -1 7 -6 7 -7 0 -7 7 1 20 7 11 14 16 16 10 2 -5 10
-10 18 -10z m251 -2 c-3 -8 -6 -5 -6 6 -1 11 2 17 5 13 3 -3 4 -12 1 -19z
m396 5 c-7 -2 -19 -2 -25 0 -7 3 -2 5 12 5 14 0 19 -2 13 -5z m-412 -20 c13
-16 12 -17 -3 -4 -17 13 -22 21 -14 21 2 0 10 -8 17 -17z m99 13 c0 -2 -7 -7
-16 -10 -8 -3 -12 -2 -9 4 6 10 25 14 25 6z m227 -11 c0 -8 -4 -12 -9 -9 -4 3
-8 9 -8 15 0 5 4 9 8 9 5 0 9 -7 9 -15z m130 9 c-3 -3 -12 -4 -19 -1 -8 3 -5
6 6 6 11 1 17 -2 13 -5z m-407 -14 c-13 -9 -13 -11 0 -20 13 -8 12 -10 -2 -10
-10 0 -18 6 -18 13 0 17 10 27 24 27 6 0 4 -5 -4 -10z m85 1 c3 -5 1 -12 -4
-15 -5 -3 -11 1 -15 9 -6 16 9 21 19 6z m385 0 c0 -4 -11 -6 -25 -3 -14 2 -25
6 -25 8 0 2 11 4 25 4 14 0 25 -4 25 -9z m89 -17 c9 -8 -45 -2 -64 6 -14 7 -8
8 20 3 22 -3 42 -7 44 -9z m-422 0 c-3 -3 -12 -4 -19 -1 -8 3 -5 6 6 6 11 1
17 -2 13 -5z m-92 -14 c3 -5 1 -10 -4 -10 -6 0 -11 5 -11 10 0 6 2 10 4 10 3
0 8 -4 11 -10z m269 -5 c-4 -8 -13 -15 -22 -15 -13 0 -12 3 4 15 24 18 25 18
18 0z m-104 -20 c0 -8 6 -12 14 -9 8 3 17 1 21 -5 4 -7 -2 -10 -16 -8 -12 2
-26 14 -31 26 -5 14 -4 20 2 16 6 -3 10 -13 10 -20z m437 19 c-3 -3 -12 -4
-19 -1 -8 3 -5 6 6 6 11 1 17 -2 13 -5z m-373 -26 c10 -13 16 -17 16 -9 0 8 3
11 7 8 3 -4 11 -3 17 2 18 14 57 21 49 8 -4 -7 0 -8 12 -3 15 5 16 4 5 -9 -11
-13 -10 -15 1 -10 9 3 15 -1 16 -12 1 -13 -6 -18 -28 -19 -18 -1 -26 3 -21 10
10 17 11 36 1 36 -5 0 -9 -5 -9 -11 0 -5 -5 -7 -10 -4 -7 4 -9 -3 -5 -22 5
-21 4 -24 -4 -13 -10 15 -14 16 -46 19 -8 0 -15 10 -15 20 0 12 -8 21 -22 24
l-23 4 22 2 c12 0 29 -9 37 -21z m252 7 c-3 -23 -12 -26 -13 -5 -1 11 2 20 7
20 4 0 7 -7 6 -15z m177 8 c-7 -2 -19 -2 -25 0 -7 3 -2 5 12 5 14 0 19 -2 13
-5z m50 -10 c-7 -2 -19 -2 -25 0 -7 3 -2 5 12 5 14 0 19 -2 13 -5z m-918 -13
c3 -5 1 -10 -4 -10 -6 0 -11 5 -11 10 0 6 2 10 4 10 3 0 8 -4 11 -10z m962 4
c-3 -3 -12 -4 -19 -1 -8 3 -5 6 6 6 11 1 17 -2 13 -5z m50 -10 c-3 -3 -12 -4
-19 -1 -8 3 -5 6 6 6 11 1 17 -2 13 -5z m40 -10 c-3 -3 -12 -4 -19 -1 -8 3 -5
6 6 6 11 1 17 -2 13 -5z m46 -11 c-7 -2 -19 -2 -25 0 -7 3 -2 5 12 5 14 0 19
-2 13 -5z m50 -10 c-7 -2 -19 -2 -25 0 -7 3 -2 5 12 5 14 0 19 -2 13 -5z m47
-7 c0 -3 -4 -8 -10 -11 -5 -3 -10 -1 -10 4 0 6 5 11 10 11 6 0 10 -2 10 -4z
m-160 -10 c0 -2 -7 -7 -16 -10 -8 -3 -12 -2 -9 4 6 10 25 14 25 6z m217 -2
c-3 -3 -12 -4 -19 -1 -8 3 -5 6 6 6 11 1 17 -2 13 -5z m46 -11 c-7 -2 -19 -2
-25 0 -7 3 -2 5 12 5 14 0 19 -2 13 -5z m44 -9 c-3 -3 -12 -4 -19 -1 -8 3 -5
6 6 6 11 1 17 -2 13 -5z m40 -10 c-3 -3 -12 -4 -19 -1 -8 3 -5 6 6 6 11 1 17
-2 13 -5z m-467 -14 c0 -5 -5 -10 -11 -10 -5 0 -7 5 -4 10 3 6 8 10 11 10 2 0
4 -4 4 -10z m550 0 c20 -6 21 -8 5 -8 -11 0 -31 4 -45 8 -20 6 -21 8 -5 8 11
0 31 -4 45 -8z m67 -16 c-3 -3 -12 -4 -19 -1 -8 3 -5 6 6 6 11 1 17 -2 13 -5z
m133 -24 l25 -8 -25 0 c-14 0 -38 4 -55 8 l-30 8 30 0 c17 0 41 -4 55 -8z
m-156 -16 c3 -8 2 -12 -4 -9 -6 3 -10 10 -10 16 0 14 7 11 14 -7z m246 -4 l25
-8 -25 0 c-14 0 -34 3 -45 8 l-20 9 20 -1 c11 0 31 -4 45 -8z m-261 -33 c0 -8
-2 -8 -6 1 -4 10 -8 10 -21 0 -15 -12 -16 -11 -3 4 14 19 32 15 30 -5z"/>
<path d="M3500 4200 c0 -5 5 -10 11 -10 5 0 7 5 4 10 -3 6 -8 10 -11 10 -2 0
-4 -4 -4 -10z"/>
<path d="M1358 4633 c7 -3 16 -2 19 1 4 3 -2 6 -13 5 -11 0 -14 -3 -6 -6z"/>
<path d="M1345 4600 c-3 -5 -1 -10 4 -10 6 0 11 5 11 10 0 6 -2 10 -4 10 -3 0
-8 -4 -11 -10z"/>
<path d="M1415 4509 c-4 -6 -5 -12 -2 -15 2 -3 7 2 10 11 7 17 1 20 -8 4z"/>
<path d="M1502 4494 c-12 -8 -22 -21 -22 -27 0 -8 3 -7 9 2 5 8 14 10 21 6 10
-6 9 -11 -5 -22 -11 -7 -15 -13 -10 -13 4 0 24 12 44 27 l36 27 -29 -39 c-16
-21 -24 -35 -17 -30 9 5 12 3 9 -6 -3 -8 -15 -13 -26 -11 -12 2 -22 -2 -22 -8
0 -6 4 -8 10 -5 6 4 7 -1 3 -12 -11 -31 -14 -34 -28 -23 -9 7 -16 6 -25 -4
-13 -17 -6 -36 15 -36 8 0 12 -9 11 -25 -2 -13 1 -22 6 -19 5 3 7 12 4 20 -3
8 0 14 6 14 7 0 3 6 -7 14 -11 8 -23 12 -27 10 -5 -3 -8 0 -8 6 0 8 9 10 24 6
20 -5 28 0 46 29 18 29 25 33 36 24 9 -7 14 -8 14 -1 0 6 3 19 7 29 6 15 5 16
-9 5 -13 -10 -18 -10 -24 -1 -4 8 -3 9 4 5 11 -7 17 6 13 27 -1 5 8 11 19 14
32 8 13 22 -25 18 -19 -2 -32 1 -29 6 8 13 2 11 -24 -7z"/>
<path d="M1425 4481 c-3 -5 -1 -12 5 -16 6 -4 7 -12 3 -18 -4 -7 1 -5 12 3 16
14 16 15 1 18 -9 2 -14 8 -11 13 4 5 4 9 1 9 -3 0 -7 -4 -11 -9z"/>
<path d="M1477 4429 c7 -7 15 -10 18 -7 3 3 -2 9 -12 12 -14 6 -15 5 -6 -5z"/>
<path d="M1460 4410 c0 -5 5 -10 11 -10 5 0 7 5 4 10 -3 6 -8 10 -11 10 -2 0
-4 -4 -4 -10z"/>
<path d="M1540 4374 c0 -9 -5 -12 -12 -8 -7 4 -10 4 -6 -1 4 -4 2 -15 -5 -23
-10 -13 -9 -14 11 -3 18 10 33 51 17 51 -3 0 -5 -7 -5 -16z"/>
<path d="M1740 4380 c-12 -8 -9 -9 12 -8 15 1 24 6 22 10 -7 10 -16 10 -34 -2z"/>
<path d="M1560 4370 c0 -5 5 -10 11 -10 5 0 7 5 4 10 -3 6 -8 10 -11 10 -2 0
-4 -4 -4 -10z"/>
<path d="M1826 4372 c-4 -7 -5 -16 -2 -19 3 -3 1 -14 -5 -24 -6 -13 -6 -19 1
-19 5 0 10 7 10 15 0 14 12 19 33 16 4 0 7 6 7 15 0 13 -3 14 -14 5 -11 -10
-15 -8 -18 6 -3 14 -5 15 -12 5z"/>
<path d="M1884 4360 c0 -11 3 -20 7 -20 4 0 9 9 12 20 3 12 0 20 -7 20 -6 0
-12 -9 -12 -20z"/>
<path d="M2440 4365 c0 -6 5 -16 11 -22 8 -8 8 -13 0 -17 -6 -4 -11 -2 -11 4
0 18 -23 6 -26 -13 -1 -9 3 -20 8 -24 7 -3 8 -1 4 5 -6 11 12 17 37 13 4 0 7
3 7 8 0 10 19 9 37 -2 9 -6 11 -3 7 7 -6 15 -11 18 -42 20 -7 1 -17 8 -22 16
-5 8 -10 10 -10 5z"/>
<path d="M1795 4350 c3 -5 8 -10 11 -10 2 0 4 5 4 10 0 6 -5 10 -11 10 -5 0
-7 -4 -4 -10z"/>
<path d="M1538 4323 c7 -3 16 -2 19 1 4 3 -2 6 -13 5 -11 0 -14 -3 -6 -6z"/>
<path d="M1660 4323 c0 -15 18 -35 27 -32 5 2 1 12 -9 22 -10 9 -18 14 -18 10z"/>
<path d="M1685 4320 c3 -5 13 -10 21 -10 8 0 12 5 9 10 -3 6 -13 10 -21 10 -8
0 -12 -4 -9 -10z"/>
<path d="M1760 4320 c-8 -5 -18 -6 -22 -4 -4 3 -5 -2 -1 -11 5 -13 7 -14 14
-3 8 11 10 11 18 0 7 -11 9 -11 14 2 8 19 -4 28 -23 16z"/>
<path d="M1841 4318 c0 -9 4 -20 9 -23 6 -4 8 -9 6 -13 -2 -4 2 -12 9 -19 10
-9 14 -8 18 8 3 11 15 23 26 26 12 3 21 10 21 15 0 6 -7 8 -15 4 -8 -3 -15 -1
-15 4 0 6 -7 10 -15 10 -8 0 -15 -4 -15 -10 0 -5 8 -10 17 -10 12 0 14 -3 7
-10 -14 -14 -42 -3 -47 18 -4 16 -5 16 -6 0z"/>
<path d="M2203 4296 l-21 -23 24 0 c18 0 22 3 14 11 -6 9 -6 16 2 24 7 7 10
12 7 12 -3 0 -15 -11 -26 -24z"/>
<path d="M1584 4290 c0 -11 4 -20 8 -20 4 0 8 9 8 20 0 11 -4 20 -8 20 -4 0
-8 -9 -8 -20z"/>
<path d="M2480 4306 c0 -2 7 -7 16 -10 8 -3 12 -2 9 4 -6 10 -25 14 -25 6z"/>
<path d="M1425 4291 c-3 -5 -1 -12 5 -16 5 -3 10 1 10 9 0 18 -6 21 -15 7z"/>
<path d="M1617 4286 c-3 -8 -2 -18 3 -21 13 -8 20 9 11 24 -6 10 -10 9 -14 -3z"/>
<path d="M1960 4289 c0 -5 5 -7 10 -4 6 3 10 8 10 11 0 2 -4 4 -10 4 -5 0 -10
-5 -10 -11z"/>
<path d="M2246 4284 c-4 -10 -1 -22 5 -28 9 -8 10 -7 6 6 -3 10 -2 20 3 23 5
3 11 -5 13 -17 5 -22 5 -21 4 1 -2 29 -22 39 -31 15z"/>
<path d="M2446 4293 c5 -5 12 -12 16 -18 4 -6 8 -2 8 8 0 9 -7 17 -17 17 -9 0
-12 -3 -7 -7z"/>
<path d="M1500 4272 c0 -7 5 -10 10 -7 6 3 10 1 10 -5 0 -7 6 -8 19 -1 10 6
21 8 25 6 3 -3 2 0 -4 7 -14 16 -60 17 -60 0z"/>
<path d="M1720 4284 c0 -12 36 -34 44 -27 10 11 7 25 -4 18 -6 -4 -17 -1 -25
5 -8 7 -15 8 -15 4z"/>
<path d="M2650 4282 c0 -5 7 -9 15 -9 8 0 12 4 9 9 -3 4 -9 8 -15 8 -5 0 -9
-4 -9 -8z"/>
<path d="M1996 4272 c-4 -7 -5 -16 -2 -21 8 -13 39 -7 42 8 2 7 0 7 -3 1 -3
-7 -10 -5 -17 6 -9 12 -15 14 -20 6z"/>
<path d="M2106 4265 c4 -8 7 -15 9 -15 2 0 5 7 9 15 3 9 0 15 -9 15 -9 0 -12
-6 -9 -15z"/>
<path d="M2154 4261 c0 -11 3 -18 7 -15 4 2 9 -1 11 -8 3 -7 7 -4 12 7 4 11 4
16 0 12 -4 -4 -12 0 -18 9 -10 13 -12 13 -12 -5z"/>
<path d="M1811 4253 c0 -12 2 -13 6 -5 4 9 8 10 18 2 10 -8 15 -8 21 1 4 7 3
9 -4 5 -6 -3 -13 -2 -17 4 -10 16 -25 12 -24 -7z"/>
<path d="M1576 4244 c-22 -21 -21 -38 1 -26 9 6 18 17 19 26 3 20 -1 20 -20 0z"/>
<path d="M1636 4252 c-3 -4 4 -9 15 -9 23 -2 25 3 4 10 -8 4 -16 3 -19 -1z"/>
<path d="M1724 4243 c2 -9 8 -19 15 -21 10 -3 10 0 2 17 -14 25 -20 27 -17 4z"/>
<path d="M2300 4242 c6 -13 16 -22 23 -19 15 5 21 27 7 27 -6 0 -8 -4 -5 -10
10 -17 -7 -11 -22 8 -13 15 -13 15 -3 -6z"/>
<path d="M2680 4256 c0 -2 8 -10 18 -17 15 -13 16 -12 3 4 -13 16 -21 21 -21
13z"/>
<path d="M2745 4250 c3 -5 8 -10 11 -10 2 0 4 5 4 10 0 6 -5 10 -11 10 -5 0
-7 -4 -4 -10z"/>
<path d="M1685 4240 c-3 -5 -1 -10 4 -10 6 0 11 5 11 10 0 6 -2 10 -4 10 -3 0
-8 -4 -11 -10z"/>
<path d="M1778 4243 c-21 -5 -24 -23 -4 -23 8 0 16 7 20 15 3 8 4 14 3 14 -1
-1 -10 -3 -19 -6z"/>
<path d="M1531 4224 c0 -11 3 -14 6 -6 3 7 2 16 -1 19 -3 4 -6 -2 -5 -13z"/>
<path d="M1606 4223 c-6 -14 -5 -15 5 -6 7 7 10 15 7 18 -3 3 -9 -2 -12 -12z"/>
<path d="M1845 4227 c-12 -10 -15 -16 -6 -21 6 -4 14 0 17 8 3 9 11 13 17 9 6
-3 7 -1 3 5 -9 15 -8 15 -31 -1z"/>
<path d="M1910 4232 c0 -4 10 -13 23 -21 22 -14 22 -14 3 8 -20 22 -26 25 -26
13z"/>
<path d="M2530 4230 c0 -5 5 -10 11 -10 5 0 7 5 4 10 -3 6 -8 10 -11 10 -2 0
-4 -4 -4 -10z"/>
<path d="M2275 4220 c3 -5 8 -10 11 -10 2 0 4 5 4 10 0 6 -5 10 -11 10 -5 0
-7 -4 -4 -10z"/>
<path d="M2586 4221 c-4 -5 -2 -12 3 -15 5 -4 12 -2 15 3 4 5 2 12 -3 15 -5 4
-12 2 -15 -3z"/>
<path d="M1688 4213 c6 -2 18 -2 25 0 6 3 1 5 -13 5 -14 0 -19 -2 -12 -5z"/>
<path d="M2093 4204 c0 -7 6 -15 12 -18 6 -2 12 2 12 10 0 7 -6 15 -12 18 -6
2 -12 -2 -12 -10z"/>
<path d="M2201 4193 c7 -10 15 -20 16 -22 2 -2 3 3 3 11 0 9 -7 19 -16 22 -15
6 -15 4 -3 -11z"/>
<path d="M2326 4199 c3 -5 9 -7 14 -4 4 3 13 -1 19 -9 9 -11 9 -15 -1 -19 -9
-4 -9 -6 -1 -6 20 -2 24 16 7 30 -19 16 -47 21 -38 8z"/>
<path d="M1696 4191 c-4 -6 -2 -11 4 -11 6 0 9 -4 6 -9 -8 -13 16 -19 39 -10
18 7 16 9 -15 13 -6 0 -15 7 -19 15 -6 9 -11 10 -15 2z"/>
<path d="M1861 4186 c-1 -12 -6 -16 -16 -12 -8 3 -24 2 -36 -2 -20 -8 -20 -8
5 -20 18 -8 27 -8 32 -1 3 6 20 18 38 26 19 9 23 12 9 10 -12 -3 -24 0 -27 7
-2 6 -5 3 -5 -8z m-21 -26 c0 -5 -2 -10 -4 -10 -3 0 -8 5 -11 10 -3 6 -1 10 4
10 6 0 11 -4 11 -10z"/>
<path d="M2715 4190 c-3 -5 3 -10 15 -10 12 0 18 5 15 10 -3 6 -10 10 -15 10
-5 0 -12 -4 -15 -10z"/>
<path d="M3069 4182 c-9 -9 -19 -23 -24 -30 -6 -11 -3 -12 12 -3 11 6 23 8 26
5 3 -3 8 -1 12 5 3 6 2 11 -4 11 -6 0 -8 7 -5 15 8 19 3 18 -17 -3z"/>
<path d="M3105 4190 c3 -5 8 -10 11 -10 2 0 4 5 4 10 0 6 -5 10 -11 10 -5 0
-7 -4 -4 -10z"/>
<path d="M3304 4178 c19 -33 22 -59 4 -37 -7 8 -12 12 -10 10 1 -2 -6 -14 -15
-25 -17 -20 -17 -20 0 -6 16 12 20 12 27 0 7 -12 10 -11 14 3 4 9 8 25 12 34
3 10 2 14 -2 11 -3 -4 -15 3 -26 15 l-20 22 16 -27z"/>
<path d="M2283 4175 c-8 -9 -9 -16 -3 -20 6 -3 10 -1 10 4 0 6 3 10 8 9 4 -2
8 1 10 7 5 15 -12 16 -25 0z"/>
<path d="M2462 4175 c1 -11 -2 -19 -8 -18 -6 1 -11 -4 -11 -12 0 -7 6 -11 13
-8 18 7 26 35 13 47 -8 8 -10 6 -7 -9z"/>
<path d="M2575 4181 c-3 -6 5 -15 17 -21 21 -10 21 -10 6 3 -10 8 -15 17 -11
20 3 4 4 7 0 7 -3 0 -8 -4 -12 -9z"/>
<path d="M3361 4181 c-8 -5 -9 -11 -3 -15 5 -3 12 1 16 9 6 17 6 18 -13 6z"/>
<path d="M1541 4164 c0 -11 3 -14 6 -6 3 7 2 16 -1 19 -3 4 -6 -2 -5 -13z"/>
<path d="M1574 4164 c-18 -14 -18 -15 4 -4 12 6 22 13 22 15 0 8 -5 6 -26 -11z"/>
<path d="M1630 4170 c-8 -5 -10 -10 -5 -10 6 0 17 5 25 10 8 5 11 10 5 10 -5
0 -17 -5 -25 -10z"/>
<path d="M2510 4170 c0 -5 5 -10 10 -10 6 0 10 5 10 10 0 6 -4 10 -10 10 -5 0
-10 -4 -10 -10z"/>
<path d="M2660 4171 c0 -5 9 -7 20 -4 11 3 20 7 20 9 0 2 -9 4 -20 4 -11 0
-20 -4 -20 -9z"/>
<path d="M2843 4165 c0 -8 4 -15 9 -15 4 0 8 4 8 9 0 6 -4 12 -8 15 -5 3 -9
-1 -9 -9z"/>
<path d="M2884 4166 c-18 -14 -18 -15 -2 -21 10 -4 15 -12 12 -19 -3 -6 1 -3
9 7 16 20 32 23 21 5 -5 -10 -4 -10 6 -1 7 6 20 9 29 6 13 -4 13 -3 2 5 -7 5
-11 15 -7 20 4 6 -6 5 -21 -3 -36 -19 -49 -19 -33 0 16 19 9 19 -16 1z"/>
<path d="M1670 4161 c0 -6 4 -13 10 -16 6 -3 7 1 4 9 -7 18 -14 21 -14 7z"/>
<path d="M1902 4163 c-13 -5 -7 -23 9 -23 6 0 8 4 5 9 -4 5 0 12 6 14 7 3 9 5
3 5 -5 0 -16 -2 -23 -5z"/>
<path d="M1970 4160 c-9 -6 -10 -10 -3 -10 6 0 15 5 18 10 8 12 4 12 -15 0z"/>
<path d="M2114 4158 c-4 -7 -4 -10 1 -6 4 4 16 3 26 -3 11 -5 19 -7 19 -5 0 3
-9 10 -19 16 -15 7 -22 7 -27 -2z"/>
<path d="M2186 4162 c-3 -4 4 -9 15 -9 23 -2 25 3 4 10 -8 4 -16 3 -19 -1z"/>
<path d="M2717 4149 c4 -15 8 -17 19 -8 16 13 12 22 -10 25 -9 1 -12 -5 -9
-17z"/>
<path d="M3000 4160 c-12 -7 -10 -9 7 -7 12 0 19 5 17 9 -6 10 -6 10 -24 -2z"/>
<path d="M3152 4158 c-7 -7 -12 -8 -12 -4 0 5 -7 3 -15 -4 -19 -16 -19 -37 0
-37 11 0 12 4 4 13 -12 15 -2 22 28 19 12 -1 24 4 27 12 7 16 -16 17 -32 1z"/>
<path d="M3224 4158 c-3 -4 -2 -8 3 -7 24 4 43 -2 37 -13 -4 -7 -3 -8 4 -4 7
4 12 11 12 15 0 12 -49 20 -56 9z"/>
<path d="M1861 4146 c-9 -10 -7 -17 6 -27 16 -12 17 -12 6 2 -10 12 -10 18 -1
27 7 7 9 12 6 12 -3 0 -11 -6 -17 -14z"/>
<path d="M2040 4144 c0 -8 5 -12 10 -9 6 3 10 10 10 16 0 5 -4 9 -10 9 -5 0
-10 -7 -10 -16z"/>
<path d="M2070 4156 c0 -2 8 -10 18 -17 15 -13 16 -12 3 4 -13 16 -21 21 -21
13z"/>
<path d="M2230 4150 c0 -5 5 -10 11 -10 5 0 7 -5 3 -12 -4 -7 -3 -8 4 -4 6 4
9 13 5 21 -6 17 -23 20 -23 5z"/>
<path d="M2798 4153 c7 -3 16 -2 19 1 4 3 -2 6 -13 5 -11 0 -14 -3 -6 -6z"/>
<path d="M1585 4134 c-10 -8 -14 -14 -8 -14 7 0 14 4 18 10 3 5 12 7 20 3 8
-3 15 -3 15 0 0 13 -28 13 -45 1z"/>
<path d="M2010 4140 c0 -5 5 -10 10 -10 6 0 10 5 10 10 0 6 -4 10 -10 10 -5 0
-10 -4 -10 -10z"/>
<path d="M2335 4140 c-3 -5 -2 -10 4 -10 5 0 13 5 16 10 3 6 2 10 -4 10 -5 0
-13 -4 -16 -10z"/>
<path d="M3496 4127 c3 -10 9 -15 12 -12 3 3 0 11 -7 18 -10 9 -11 8 -5 -6z"/>
<path d="M3716 4127 c3 -10 9 -15 12 -12 3 3 0 11 -7 18 -10 9 -11 8 -5 -6z"/>
<path d="M3781 4118 c9 -16 29 -17 29 -2 0 3 -4 2 -10 -1 -5 -3 -10 -2 -10 4
0 5 6 11 13 14 6 3 2 4 -10 4 -18 -1 -20 -4 -12 -19z"/>
<path d="M3380 4120 c0 -5 5 -10 11 -10 5 0 7 5 4 10 -3 6 -8 10 -11 10 -2 0
-4 -4 -4 -10z"/>
<path d="M3526 4117 c3 -10 9 -15 12 -12 3 3 0 11 -7 18 -10 9 -11 8 -5 -6z"/>
<path d="M3750 4120 c0 -5 5 -10 11 -10 5 0 7 5 4 10 -3 6 -8 10 -11 10 -2 0
-4 -4 -4 -10z"/>
<path d="M2580 4116 c0 -2 7 -7 16 -10 8 -3 12 -2 9 4 -6 10 -25 14 -25 6z"/>
<path d="M2976 4103 c-6 -14 -5 -15 5 -6 7 7 10 15 7 18 -3 3 -9 -2 -12 -12z"/>
<path d="M3060 4110 c0 -6 7 -10 15 -10 8 0 15 2 15 4 0 2 -7 6 -15 10 -8 3
-15 1 -15 -4z"/>
<path d="M3222 4104 c-7 -8 -8 -14 -3 -14 10 0 25 19 20 25 -2 1 -10 -3 -17
-11z"/>
<path d="M3558 4113 c7 -3 16 -2 19 1 4 3 -2 6 -13 5 -11 0 -14 -3 -6 -6z"/>
<path d="M1628 4103 c7 -3 16 -2 19 1 4 3 -2 6 -13 5 -11 0 -14 -3 -6 -6z"/>
<path d="M1563 4085 c0 -8 4 -12 9 -9 5 3 6 10 3 15 -9 13 -12 11 -12 -6z"/>
<path d="M2203 4083 c1 -15 5 -19 13 -13 6 6 15 6 19 2 5 -4 5 -1 1 6 -4 7
-11 10 -16 7 -4 -3 -10 1 -13 7 -3 7 -4 3 -4 -9z"/>
<path d="M2292 4080 c0 -14 2 -19 5 -12 2 6 2 18 0 25 -3 6 -5 1 -5 -13z"/>
<path d="M3495 4089 c-4 -6 -5 -12 -2 -15 2 -3 7 2 10 11 7 17 1 20 -8 4z"/>
<path d="M3556 4092 c-2 -4 -1 -14 4 -22 7 -11 9 -9 7 8 -1 24 -3 26 -11 14z"/>
<path d="M3587 4093 c-17 -16 -6 -33 21 -32 23 2 24 2 5 6 -13 2 -23 9 -23 14
0 6 5 7 12 3 7 -4 8 -3 4 4 -8 14 -10 14 -19 5z"/>
<path d="M3690 4089 c0 -3 8 -9 18 -13 9 -3 24 -9 32 -12 12 -4 12 -3 2 4 -8
5 -14 13 -15 18 -2 10 -37 14 -37 3z"/>
<path d="M3960 4090 c-9 -6 -10 -10 -3 -10 6 0 15 5 18 10 8 12 4 12 -15 0z"/>
<path d="M3991 4084 c0 -11 3 -14 6 -6 3 7 2 16 -1 19 -3 4 -6 -2 -5 -13z"/>
<path d="M1830 4081 c0 -6 4 -13 10 -16 6 -3 7 1 4 9 -7 18 -14 21 -14 7z"/>
<path d="M1881 4074 c0 -11 3 -14 6 -6 3 7 2 16 -1 19 -3 4 -6 -2 -5 -13z"/>
<path d="M2326 4077 c3 -10 9 -15 12 -12 3 3 0 11 -7 18 -10 9 -11 8 -5 -6z"/>
<path d="M3055 4080 c-3 -6 1 -7 9 -4 18 7 21 14 7 14 -6 0 -13 -4 -16 -10z"/>
<path d="M3801 4074 c9 -11 8 -18 -2 -31 -11 -13 -8 -13 13 2 27 20 24 37 -7
41 -13 2 -14 -1 -4 -12z"/>
<path d="M1780 4075 c0 -7 30 -13 34 -7 3 4 -4 9 -15 9 -10 1 -19 0 -19 -2z"/>
<path d="M1910 4070 c0 -5 5 -10 11 -10 5 0 7 5 4 10 -3 6 -8 10 -11 10 -2 0
-4 -4 -4 -10z"/>
<path d="M2387 4073 c-11 -11 -8 -21 9 -27 13 -5 14 -4 6 7 -7 8 -9 17 -5 20
3 4 4 7 1 7 -2 0 -8 -3 -11 -7z"/>
<path d="M2480 4072 c0 -5 7 -9 15 -9 8 0 12 4 9 9 -3 4 -9 8 -15 8 -5 0 -9
-4 -9 -8z"/>
<path d="M2725 4071 c-3 -5 -2 -12 3 -15 5 -3 9 1 9 9 0 17 -3 19 -12 6z"/>
<path d="M4010 4064 c0 -11 -5 -14 -16 -10 -14 5 -15 4 -4 -9 7 -9 14 -14 15
-13 14 18 24 48 15 48 -5 0 -10 -7 -10 -16z"/>
<path d="M1717 4053 c3 -7 6 -13 8 -13 2 0 5 6 8 13 3 8 -1 14 -8 14 -7 0 -11
-6 -8 -14z"/>
<path d="M2792 4061 c-11 -7 -11 -9 0 -14 9 -3 15 1 15 9 0 8 -1 14 -1 14 -1
0 -7 -4 -14 -9z"/>
<path d="M2832 4042 c-11 -25 -11 -25 4 -10 9 9 15 21 13 27 -2 6 -10 -2 -17
-17z"/>
<path d="M2867 4055 c-4 -8 -3 -16 1 -19 4 -3 9 4 9 15 2 23 -3 25 -10 4z"/>
<path d="M4424 4055 c-4 -8 -10 -12 -15 -9 -5 3 -9 0 -9 -6 0 -6 7 -13 15 -16
8 -4 13 -10 10 -14 -3 -5 4 -8 15 -7 20 1 29 17 9 17 -5 0 -7 5 -3 12 5 7 3 8
-6 3 -10 -6 -12 -3 -8 13 7 25 0 30 -8 7z"/>
<path d="M1557 4047 c-3 -8 1 -14 8 -14 7 0 11 6 8 14 -3 7 -6 13 -8 13 -2 0
-5 -6 -8 -13z"/>
<path d="M2262 4046 c7 -8 15 -12 17 -11 5 6 -10 25 -20 25 -5 0 -4 -6 3 -14z"/>
<path d="M2521 4055 c0 -5 4 -17 9 -25 7 -11 10 -11 10 -2 0 7 5 10 12 6 7 -4
8 -3 4 5 -4 6 -11 9 -16 6 -4 -3 -11 1 -13 7 -3 7 -6 9 -6 3z"/>
<path d="M2590 4050 c-9 -6 -10 -10 -3 -10 6 0 15 5 18 10 8 12 4 12 -15 0z"/>
<path d="M2936 4045 c-3 -8 -1 -15 4 -15 6 0 10 7 10 15 0 8 -2 15 -4 15 -2 0
-6 -7 -10 -15z"/>
<path d="M3904 4052 c3 -5 0 -13 -6 -15 -9 -4 -10 -6 -1 -6 17 -1 25 16 12 25
-7 4 -9 3 -5 -4z"/>
<path d="M3940 4048 c6 -7 17 -22 25 -33 l15 -20 -7 20 c-8 26 -23 45 -35 45
-5 0 -4 -6 2 -12z"/>
<path d="M2048 4043 c7 -3 16 -2 19 1 4 3 -2 6 -13 5 -11 0 -14 -3 -6 -6z"/>
<path d="M2113 4035 c0 -8 4 -12 9 -9 5 3 6 10 3 15 -9 13 -12 11 -12 -6z"/>
<path d="M4200 4046 c0 -2 8 -10 18 -17 15 -13 16 -12 3 4 -13 16 -21 21 -21
13z"/>
<path d="M4266 4033 c-6 -14 -5 -15 5 -6 7 7 10 15 7 18 -3 3 -9 -2 -12 -12z"/>
<path d="M4351 4034 c0 -11 3 -14 6 -6 3 7 2 16 -1 19 -3 4 -6 -2 -5 -13z"/>
<path d="M2724 4025 c-10 -8 -14 -14 -9 -14 6 0 19 6 29 14 11 8 15 15 10 15
-6 0 -19 -7 -30 -15z"/>
<path d="M2896 4028 c3 -4 9 -8 15 -8 5 0 9 4 9 8 0 5 -7 9 -15 9 -8 0 -12 -4
-9 -9z"/>
<path d="M3125 4031 c-3 -5 -2 -12 3 -15 5 -3 9 1 9 9 0 17 -3 19 -12 6z"/>
<path d="M2291 4013 c0 -11 3 -13 6 -5 2 6 10 9 15 6 7 -4 8 -2 4 4 -11 18
-26 14 -25 -5z"/>
<path d="M3386 4012 c-2 -4 4 -8 14 -8 10 0 16 4 14 8 -3 4 -9 8 -14 8 -5 0
-11 -4 -14 -8z"/>
<path d="M1885 4001 c-3 -5 -2 -12 3 -15 5 -3 9 1 9 9 0 17 -3 19 -12 6z"/>
<path d="M2100 4007 c0 -3 15 -10 32 -16 18 -6 28 -7 23 -2 -12 10 -55 25 -55
18z"/>
<path d="M2733 3995 c-3 -9 -3 -18 -1 -21 3 -3 8 4 11 16 6 23 -1 27 -10 5z"/>
<path d="M2905 4001 c-3 -5 0 -13 6 -17 7 -4 9 -3 5 4 -3 5 0 13 6 15 9 4 10
6 1 6 -6 1 -14 -3 -18 -8z"/>
<path d="M3442 4001 c-11 -6 -10 -10 4 -15 9 -3 19 -4 22 -1 3 3 0 5 -7 5 -7
0 -9 5 -6 10 7 12 4 12 -13 1z"/>
<path d="M4647 4003 c-4 -3 -7 -11 -7 -16 0 -6 3 -7 7 -4 3 4 13 1 22 -6 14
-10 14 -10 3 5 -10 13 -10 17 0 21 9 4 8 6 -3 6 -9 1 -19 -2 -22 -6z"/>
<path d="M1745 3990 c-3 -5 1 -10 10 -10 9 0 13 5 10 10 -3 6 -8 10 -10 10 -2
0 -7 -4 -10 -10z"/>
<path d="M3247 3989 c7 -7 15 -10 18 -7 3 3 -2 9 -12 12 -14 6 -15 5 -6 -5z"/>
<path d="M3560 3989 c0 -5 5 -7 10 -4 6 3 10 8 10 11 0 2 -4 4 -10 4 -5 0 -10
-5 -10 -11z"/>
<path d="M1776 3975 c-11 -8 -16 -15 -10 -15 5 0 18 7 28 15 11 8 16 15 10 15
-5 0 -18 -7 -28 -15z"/>
<path d="M2625 3980 c-3 -6 1 -7 9 -4 18 7 21 14 7 14 -6 0 -13 -4 -16 -10z"/>
<path d="M2930 3985 c0 -5 5 -17 10 -25 5 -8 10 -10 10 -5 0 6 -5 17 -10 25
-5 8 -10 11 -10 5z"/>
<path d="M3205 3980 c4 -6 11 -8 16 -5 14 9 11 15 -7 15 -8 0 -12 -5 -9 -10z"/>
<path d="M3800 3981 c0 -5 7 -12 16 -15 14 -5 15 -4 4 9 -14 17 -20 19 -20 6z"/>
<path d="M3048 3973 c6 -2 9 -10 6 -15 -4 -7 -2 -8 5 -4 13 9 5 26 -12 25 -9
0 -8 -2 1 -6z"/>
<path d="M3585 3970 c-3 -5 -1 -10 4 -10 6 0 11 5 11 10 0 6 -2 10 -4 10 -3 0
-8 -4 -11 -10z"/>
<path d="M4015 3970 c3 -5 8 -10 11 -10 2 0 4 5 4 10 0 6 -5 10 -11 10 -5 0
-7 -4 -4 -10z"/>
<path d="M4346 3967 c3 -10 9 -15 12 -12 3 3 0 11 -7 18 -10 9 -11 8 -5 -6z"/>
<path d="M4772 3972 c2 -8 7 -13 12 -12 5 1 13 -4 18 -12 8 -11 9 -11 6 0 -2
8 -7 13 -12 12 -5 -1 -13 4 -18 12 -8 11 -9 11 -6 0z"/>
<path d="M2713 3952 c0 -12 5 -22 9 -22 11 0 10 12 -2 30 -7 12 -9 10 -7 -8z"/>
<path d="M2834 3958 c10 -6 22 -6 26 -2 5 5 -3 10 -18 11 -22 1 -24 0 -8 -9z"/>
<path d="M2913 3955 c0 -8 4 -12 9 -9 5 3 6 10 3 15 -9 13 -12 11 -12 -6z"/>
<path d="M4747 3963 c-4 -3 -7 -11 -7 -17 0 -6 5 -5 12 2 6 6 9 14 7 17 -3 3
-9 2 -12 -2z"/>
<path d="M1808 3953 c7 -3 16 -2 19 1 4 3 -2 6 -13 5 -11 0 -14 -3 -6 -6z"/>
<path d="M2589 3943 c-13 -17 -13 -17 6 -3 11 8 22 16 24 17 2 2 0 3 -6 3 -6
0 -17 -8 -24 -17z"/>
<path d="M3250 3949 c0 -5 5 -7 10 -4 6 3 10 8 10 11 0 2 -4 4 -10 4 -5 0 -10
-5 -10 -11z"/>
<path d="M4061 3946 c-8 -10 -9 -16 -1 -21 5 -3 10 -5 11 -3 4 18 7 38 4 38
-1 0 -8 -6 -14 -14z"/>
<path d="M4430 3944 c0 -8 5 -12 10 -9 6 4 8 11 5 16 -9 14 -15 11 -15 -7z"/>
<path d="M3065 3941 c-3 -5 -1 -12 5 -16 5 -3 10 1 10 9 0 18 -6 21 -15 7z"/>
<path d="M3601 3937 c-8 -10 -7 -14 2 -14 8 0 14 6 14 14 0 7 -1 13 -2 13 -2
0 -8 -6 -14 -13z"/>
<path d="M4650 3942 c0 -5 7 -9 15 -9 8 0 12 4 9 9 -3 4 -9 8 -15 8 -5 0 -9
-4 -9 -8z"/>
<path d="M2926 3932 c-3 -5 1 -9 9 -9 8 0 12 4 9 9 -3 4 -7 8 -9 8 -2 0 -6 -4
-9 -8z"/>
<path d="M3826 3932 c-3 -5 1 -9 9 -9 8 0 12 4 9 9 -3 4 -7 8 -9 8 -2 0 -6 -4
-9 -8z"/>
<path d="M4550 3920 c0 -11 4 -20 9 -20 5 0 7 9 4 20 -3 11 -7 20 -9 20 -2 0
-4 -9 -4 -20z"/>
<path d="M4773 3925 c0 -8 4 -15 9 -15 4 0 8 4 8 9 0 6 -4 12 -8 15 -5 3 -9
-1 -9 -9z"/>
<path d="M4900 3929 c0 -5 5 -7 10 -4 6 3 10 8 10 11 0 2 -4 4 -10 4 -5 0 -10
-5 -10 -11z"/>
<path d="M4520 3919 c0 -5 5 -7 10 -4 6 3 10 8 10 11 0 2 -4 4 -10 4 -5 0 -10
-5 -10 -11z"/>
<path d="M4730 3919 c0 -5 5 -7 10 -4 6 3 10 8 10 11 0 2 -4 4 -10 4 -5 0 -10
-5 -10 -11z"/>
<path d="M1845 3911 c-3 -5 -2 -12 3 -15 5 -3 9 1 9 9 0 17 -3 19 -12 6z"/>
<path d="M3120 3910 c-9 -6 -10 -10 -3 -10 6 0 15 5 18 10 8 12 4 12 -15 0z"/>
<path d="M3170 3910 c0 -5 5 -10 10 -10 6 0 10 5 10 10 0 6 -4 10 -10 10 -5 0
-10 -4 -10 -10z"/>
<path d="M3666 3903 c-6 -14 -5 -15 5 -6 7 7 10 15 7 18 -3 3 -9 -2 -12 -12z"/>
<path d="M4360 3910 c0 -5 7 -10 16 -10 8 0 12 5 9 10 -3 6 -10 10 -16 10 -5
0 -9 -4 -9 -10z"/>
<path d="M1760 3897 c0 -9 4 -18 9 -21 5 -4 8 1 7 9 -3 21 -16 31 -16 12z"/>
<path d="M1997 3899 c7 -7 15 -10 18 -7 3 3 -2 9 -12 12 -14 6 -15 5 -6 -5z"/>
<path d="M2065 3900 c3 -5 8 -10 11 -10 2 0 4 5 4 10 0 6 -5 10 -11 10 -5 0
-7 -4 -4 -10z"/>
<path d="M2168 3903 c7 -3 16 -2 19 1 4 3 -2 6 -13 5 -11 0 -14 -3 -6 -6z"/>
<path d="M2486 3898 c3 -5 10 -6 15 -3 13 9 11 12 -6 12 -8 0 -12 -4 -9 -9z"/>
<path d="M3446 3897 c3 -10 9 -15 12 -12 3 3 0 11 -7 18 -10 9 -11 8 -5 -6z"/>
<path d="M4400 3900 c0 -5 5 -10 11 -10 5 0 7 5 4 10 -3 6 -8 10 -11 10 -2 0
-4 -4 -4 -10z"/>
<path d="M4900 3890 c6 -11 13 -20 16 -20 2 0 0 9 -6 20 -6 11 -13 20 -16 20
-2 0 0 -9 6 -20z"/>
<path d="M5247 3903 c-10 -10 -8 -33 3 -33 5 0 6 7 3 17 -5 12 -3 14 7 8 9 -5
11 -4 6 3 -8 14 -10 14 -19 5z"/>
<path d="M4638 3893 c7 -3 16 -2 19 1 4 3 -2 6 -13 5 -11 0 -14 -3 -6 -6z"/>
<path d="M4817 3893 c-4 -3 -7 -11 -7 -17 0 -6 5 -5 12 2 6 6 9 14 7 17 -3 3
-9 2 -12 -2z"/>
<path d="M2274 3881 c7 -11 46 -35 46 -28 0 3 -12 12 -26 22 -15 9 -23 12 -20
6z"/>
<path d="M2545 3880 c3 -5 8 -10 11 -10 2 0 4 5 4 10 0 6 -5 10 -11 10 -5 0
-7 -4 -4 -10z"/>
<path d="M2670 3886 c0 -2 7 -7 16 -10 8 -3 12 -2 9 4 -6 10 -25 14 -25 6z"/>
<path d="M3170 3880 c-12 -7 -10 -9 7 -7 12 0 19 5 17 9 -6 10 -6 10 -24 -2z"/>
<path d="M5292 3881 c-9 -5 -2 -8 20 -7 18 1 34 -3 36 -9 1 -5 -7 -10 -17 -10
-11 0 -22 -3 -25 -7 -3 -5 -3 -6 0 -3 12 8 44 -15 45 -33 1 -9 5 -1 8 18 4 19
5 41 3 48 -5 14 -50 16 -70 3z"/>
<path d="M2343 3861 c1 -15 4 -17 14 -9 7 5 10 14 7 19 -10 16 -23 9 -21 -10z"/>
<path d="M2976 3868 c3 -5 10 -6 15 -3 13 9 11 12 -6 12 -8 0 -12 -4 -9 -9z"/>
<path d="M3045 3870 c-2 -3 5 -6 15 -7 11 -1 22 2 25 7 3 5 -4 8 -16 7 -11 -1
-22 -4 -24 -7z"/>
<path d="M4025 3871 c-3 -5 -2 -12 3 -15 5 -3 9 1 9 9 0 17 -3 19 -12 6z"/>
<path d="M3907 3855 c-4 -8 -3 -16 1 -19 4 -3 9 4 9 15 2 23 -3 25 -10 4z"/>
<path d="M5067 3855 c-4 -8 -2 -17 4 -20 5 -4 8 -1 7 7 -2 7 3 12 10 10 8 -1
11 2 7 8 -9 14 -22 12 -28 -5z"/>
<path d="M2371 3846 c-9 -10 -8 -15 3 -19 11 -4 13 -1 9 10 -5 12 -3 14 7 8 9
-5 11 -4 6 3 -9 15 -11 15 -25 -2z"/>
<path d="M2746 3851 c-3 -4 6 -8 20 -9 13 -1 24 0 24 2 0 7 -40 14 -44 7z"/>
<path d="M3440 3856 c0 -2 8 -10 18 -17 15 -13 16 -12 3 4 -13 16 -21 21 -21
13z"/>
<path d="M4540 3850 c-13 -8 -12 -10 3 -10 9 0 17 5 17 10 0 12 -1 12 -20 0z"/>
<path d="M5251 3844 c0 -11 3 -14 6 -6 3 7 2 16 -1 19 -3 4 -6 -2 -5 -13z"/>
<path d="M1747 3839 c7 -7 15 -10 18 -7 3 3 -2 9 -12 12 -14 6 -15 5 -6 -5z"/>
<path d="M2266 3841 c-4 -5 3 -7 14 -4 23 6 26 13 6 13 -8 0 -17 -4 -20 -9z"/>
<path d="M2490 3840 c0 -5 5 -10 11 -10 5 0 7 5 4 10 -3 6 -8 10 -11 10 -2 0
-4 -4 -4 -10z"/>
<path d="M2530 3825 c-7 -9 -11 -17 -9 -20 3 -2 10 5 17 15 14 24 10 26 -8 5z"/>
<path d="M2040 3821 c0 -6 4 -13 10 -16 6 -3 7 1 4 9 -7 18 -14 21 -14 7z"/>
<path d="M3186 3818 c3 -5 10 -6 15 -3 13 9 11 12 -6 12 -8 0 -12 -4 -9 -9z"/>
<path d="M3365 3820 c3 -5 8 -10 11 -10 2 0 4 5 4 10 0 6 -5 10 -11 10 -5 0
-7 -4 -4 -10z"/>
<path d="M4795 3820 c-3 -6 1 -7 9 -4 18 7 21 14 7 14 -6 0 -13 -4 -16 -10z"/>
<path d="M5295 3820 c-3 -5 -3 -10 2 -10 4 0 1 -5 -7 -11 -12 -8 -12 -10 -1
-7 8 2 15 12 17 21 3 19 -2 22 -11 7z"/>
<path d="M5326 3813 c-6 -14 -5 -15 5 -6 7 7 10 15 7 18 -3 3 -9 -2 -12 -12z"/>
<path d="M3040 3811 c0 -6 4 -13 10 -16 6 -3 7 1 4 9 -7 18 -14 21 -14 7z"/>
<path d="M3901 3804 c0 -11 3 -14 6 -6 3 7 2 16 -1 19 -3 4 -6 -2 -5 -13z"/>
<path d="M2186 3798 c3 -5 10 -6 15 -3 13 9 11 12 -6 12 -8 0 -12 -4 -9 -9z"/>
<path d="M2380 3799 c0 -5 5 -7 10 -4 6 3 10 8 10 11 0 2 -4 4 -10 4 -5 0 -10
-5 -10 -11z"/>
<path d="M3785 3800 c-3 -6 1 -7 9 -4 18 7 21 14 7 14 -6 0 -13 -4 -16 -10z"/>
<path d="M2613 3783 c4 -3 1 -13 -6 -22 -10 -14 -10 -14 4 -4 9 7 20 9 25 5 4
-4 2 1 -5 11 -7 9 -16 17 -19 17 -3 0 -2 -3 1 -7z"/>
<path d="M5305 3779 c-4 -6 -4 -13 -1 -16 3 -4 6 -1 6 5 0 7 5 12 11 12 5 0 7
-4 4 -10 -3 -5 1 -10 9 -10 8 0 18 5 22 12 4 6 3 8 -4 4 -6 -3 -13 -2 -17 4
-8 13 -22 13 -30 -1z"/>
<path d="M2500 3769 c0 -5 5 -7 10 -4 6 3 10 8 10 11 0 2 -4 4 -10 4 -5 0 -10
-5 -10 -11z"/>
<path d="M2660 3776 c0 -2 8 -10 18 -17 15 -13 16 -12 3 4 -13 16 -21 21 -21
13z"/>
<path d="M3641 3764 c0 -11 3 -14 6 -6 3 7 2 16 -1 19 -3 4 -6 -2 -5 -13z"/>
<path d="M3825 3771 c-3 -5 -2 -12 3 -15 5 -3 9 1 9 9 0 17 -3 19 -12 6z"/>
<path d="M4556 3767 c3 -10 9 -15 12 -12 3 3 0 11 -7 18 -10 9 -11 8 -5 -6z"/>
<path d="M5121 3771 c-8 -5 -9 -11 -3 -15 5 -3 12 1 16 9 6 17 6 18 -13 6z"/>
<path d="M5185 3770 c-3 -5 1 -10 10 -10 9 0 13 5 10 10 -3 6 -8 10 -10 10 -2
0 -7 -4 -10 -10z"/>
<path d="M2330 3760 c0 -5 5 -10 11 -10 5 0 7 5 4 10 -3 6 -8 10 -11 10 -2 0
-4 -4 -4 -10z"/>
<path d="M1875 3750 c17 -4 41 -8 55 -8 l25 0 -25 8 c-14 4 -38 8 -55 8 l-30
0 30 -8z"/>
<path d="M3670 3752 c0 -5 7 -9 15 -9 8 0 12 4 9 9 -3 4 -9 8 -15 8 -5 0 -9
-4 -9 -8z"/>
<path d="M3187 3739 c7 -7 15 -10 18 -7 3 3 -2 9 -12 12 -14 6 -15 5 -6 -5z"/>
<path d="M2005 3725 c28 -7 61 -13 75 -13 14 0 -2 6 -35 14 -76 17 -107 16
-40 -1z"/>
<path d="M4276 3723 c-6 -14 -5 -15 5 -6 7 7 10 15 7 18 -3 3 -9 -2 -12 -12z"/>
<path d="M2600 3719 c0 -5 5 -7 10 -4 6 3 10 8 10 11 0 2 -4 4 -10 4 -5 0 -10
-5 -10 -11z"/>
<path d="M3270 3719 c0 -5 5 -7 10 -4 6 3 10 8 10 11 0 2 -4 4 -10 4 -5 0 -10
-5 -10 -11z"/>
<path d="M2700 3716 c0 -2 7 -7 16 -10 8 -3 12 -2 9 4 -6 10 -25 14 -25 6z"/>
<path d="M3015 3709 c-4 -6 -5 -12 -2 -15 2 -3 7 2 10 11 7 17 1 20 -8 4z"/>
<path d="M3056 3708 c3 -5 10 -6 15 -3 13 9 11 12 -6 12 -8 0 -12 -4 -9 -9z"/>
<path d="M2115 3705 c28 -11 278 -56 283 -51 3 3 -2 6 -12 6 -9 0 -15 3 -13 8
3 4 -11 7 -31 8 -21 0 -75 8 -122 17 -78 15 -129 21 -105 12z"/>
<path d="M2526 3693 c-6 -14 -5 -15 5 -6 7 7 10 15 7 18 -3 3 -9 -2 -12 -12z"/>
<path d="M3165 3699 c-4 -6 -5 -12 -2 -15 2 -3 7 2 10 11 7 17 1 20 -8 4z"/>
<path d="M3226 3692 c-3 -5 1 -9 9 -9 8 0 12 4 9 9 -3 4 -7 8 -9 8 -2 0 -6 -4
-9 -8z"/>
<path d="M4700 3690 c-9 -6 -10 -10 -3 -10 6 0 15 5 18 10 8 12 4 12 -15 0z"/>
<path d="M3560 3675 c0 -8 2 -15 4 -15 2 0 6 7 10 15 3 8 1 15 -4 15 -6 0 -10
-7 -10 -15z"/>
<path d="M4300 3681 c0 -6 4 -13 10 -16 6 -3 7 1 4 9 -7 18 -14 21 -14 7z"/>
<path d="M5090 3662 c0 -5 7 -9 15 -9 8 0 12 4 9 9 -3 4 -9 8 -15 8 -5 0 -9
-4 -9 -8z"/>
<path d="M5355 3644 c-4 -16 -11 -44 -17 -62 -5 -18 -8 -35 -5 -38 2 -2 12 23
21 57 10 33 15 63 12 66 -3 3 -8 -8 -11 -23z"/>
<path d="M2418 3643 c6 -2 18 -2 25 0 6 3 1 5 -13 5 -14 0 -19 -2 -12 -5z"/>
<path d="M2615 3604 c158 -33 193 -38 184 -29 -7 6 -305 65 -326 64 -10 -1 54
-16 142 -35z"/>
<path d="M3590 3612 c0 -5 7 -9 15 -9 8 0 12 4 9 9 -3 4 -9 8 -15 8 -5 0 -9
-4 -9 -8z"/>
<path d="M3480 3599 c0 -5 5 -7 10 -4 6 3 10 8 10 11 0 2 -4 4 -10 4 -5 0 -10
-5 -10 -11z"/>
<path d="M3548 3603 c6 -2 18 -2 25 0 6 3 1 5 -13 5 -14 0 -19 -2 -12 -5z"/>
<path d="M4020 3605 c0 -7 30 -13 34 -7 3 4 -4 9 -15 9 -10 1 -19 0 -19 -2z"/>
<path d="M5225 3600 c3 -5 8 -10 11 -10 2 0 4 5 4 10 0 6 -5 10 -11 10 -5 0
-7 -4 -4 -10z"/>
<path d="M3455 3590 c-3 -5 -1 -10 4 -10 6 0 11 5 11 10 0 6 -2 10 -4 10 -3 0
-8 -4 -11 -10z"/>
<path d="M2835 3560 c17 -4 39 -8 50 -8 16 0 15 2 -5 8 -14 4 -36 8 -50 8 -22
0 -22 -1 5 -8z"/>
<path d="M2925 3543 c66 -16 1005 -203 1016 -202 23 1 -167 42 -458 100 -149
29 -269 57 -267 61 3 4 -1 5 -9 2 -8 -3 -71 6 -140 20 -68 14 -133 25 -143 25
-17 -1 -17 -2 1 -6z"/>
<path d="M3815 3523 c-15 -12 -16 -14 -3 -10 11 4 18 0 21 -11 3 -9 4 -5 4 11
-1 15 -2 27 -2 27 0 0 -9 -8 -20 -17z"/>
<path d="M5305 3481 c-13 -39 -20 -49 -33 -45 -13 5 -14 4 -3 -4 11 -8 11 -16
1 -46 -6 -20 -15 -34 -18 -32 -4 2 -8 -8 -9 -22 -1 -24 1 -23 19 13 24 46 70
177 64 182 -2 3 -11 -18 -21 -46z"/>
<path d="M5020 3506 c0 -2 7 -6 15 -10 8 -3 15 -1 15 4 0 6 -7 10 -15 10 -8 0
-15 -2 -15 -4z"/>
<path d="M5218 3503 c7 -3 16 -2 19 1 4 3 -2 6 -13 5 -11 0 -14 -3 -6 -6z"/>
<path d="M3960 3489 c0 -5 5 -7 10 -4 6 3 10 8 10 11 0 2 -4 4 -10 4 -5 0 -10
-5 -10 -11z"/>
<path d="M3795 3459 c-4 -6 -5 -12 -2 -15 2 -3 7 2 10 11 7 17 1 20 -8 4z"/>
<path d="M5080 3441 c0 -6 4 -13 10 -16 6 -3 7 1 4 9 -7 18 -14 21 -14 7z"/>
<path d="M5115 3439 c-4 -6 -4 -13 -1 -16 3 -4 6 -1 6 5 0 8 11 9 33 5 38 -7
34 1 -5 11 -15 3 -30 1 -33 -5z"/>
<path d="M5040 3410 c13 -24 17 -25 17 -5 0 8 -6 16 -14 19 -11 4 -11 1 -3
-14z"/>
<path d="M4150 3376 c0 -2 7 -7 16 -10 8 -3 12 -2 9 4 -6 10 -25 14 -25 6z"/>
<path d="M5170 3366 c0 -2 7 -7 16 -10 8 -3 12 -2 9 4 -6 10 -25 14 -25 6z"/>
<path d="M3961 3336 c4 -4 317 -66 332 -66 4 0 7 5 7 11 0 5 -4 8 -9 5 -4 -3
-77 8 -162 24 -156 30 -176 33 -168 26z"/>
<path d="M5030 3305 c0 -5 5 -17 10 -25 5 -8 10 -10 10 -5 0 6 -5 17 -10 25
-5 8 -10 11 -10 5z"/>
<path d="M5075 3300 c-3 -5 1 -10 10 -10 9 0 13 5 10 10 -3 6 -8 10 -10 10 -2
0 -7 -4 -10 -10z"/>
<path d="M4586 3291 c-3 -5 1 -11 9 -14 9 -4 12 -1 8 9 -6 16 -10 17 -17 5z"/>
<path d="M5111 3293 c-1 -17 16 -25 25 -12 4 7 3 9 -4 5 -5 -3 -13 0 -15 6 -4
9 -6 10 -6 1z"/>
<path d="M5215 3270 c-39 -75 -117 -136 -138 -108 -6 9 -7 8 -3 -4 5 -16 -3
-18 -62 -20 l-67 -2 55 -4 c73 -5 117 10 163 55 34 33 85 113 72 113 -2 0 -11
-13 -20 -30z"/>
<path d="M4550 3270 c0 -6 7 -10 15 -10 8 0 15 2 15 4 0 2 -7 6 -15 10 -8 3
-15 1 -15 -4z"/>
<path d="M4315 3265 c16 -7 557 -116 595 -120 l35 -5 -35 10 c-56 15 -577 120
-592 119 -7 0 -8 -2 -3 -4z"/>
<path d="M5155 3239 c-4 -6 -4 -13 -1 -16 3 -4 6 -1 6 6 0 7 5 9 12 5 7 -4 8
-3 4 4 -9 15 -13 15 -21 1z"/>
</g>
</svg>
